<?xml version="1.0" encoding="UTF-8"?>
<svg version="1.1" xmlns="http://www.w3.org/2000/svg" width="360" height="360">
<path d="M0 0 C118.8 0 237.6 0 360 0 C360 118.8 360 237.6 360 360 C241.2 360 122.4 360 0 360 C0 241.2 0 122.4 0 0 Z " fill="#EDEDED" transform="translate(0,0)"/>
<path d="M0 0 C1.07461739 0.00539291 1.07461739 0.00539291 2.17094421 0.01089478 C2.92211517 0.01074875 3.67328613 0.01060272 4.44721985 0.01045227 C6.94166404 0.01115153 9.43603448 0.01894452 11.9304657 0.02676392 C13.65539509 0.02862805 15.38032501 0.03005197 17.10525513 0.03105164 C21.65418448 0.03487719 26.20308211 0.04470779 30.7519989 0.05575562 C35.39025951 0.06596893 40.02852522 0.07054908 44.66679382 0.07559204 C53.77422967 0.08633003 62.88164192 0.1034069 71.98905945 0.12442017 C73.82888844 3.26869777 74.23441961 5.54310806 74.21611023 9.16836548 C74.21588364 10.66946869 74.21588364 10.66946869 74.21565247 12.20089722 C74.2053299 13.27394104 74.19500732 14.34698486 74.18437195 15.45254517 C74.18154205 16.55668762 74.17871216 17.66083008 74.17579651 18.7984314 C74.16460434 22.32387137 74.1395012 25.84905701 74.11405945 29.37442017 C74.10402842 31.7650415 74.09490278 34.15566681 74.0867157 36.54629517 C74.06466814 42.4057569 74.03119998 48.26507036 73.98905945 54.12442017 C73.02741882 54.40027954 72.0657782 54.67613892 71.07499695 54.96035767 C67.78202058 55.81179232 67.78202058 55.81179232 66.61405945 58.74942017 C65.88805012 62.66987052 65.85176493 66.14287917 65.98905945 70.12442017 C62.52405945 70.61942017 62.52405945 70.61942017 58.98905945 71.12442017 C58.76218445 72.23817017 58.53530945 73.35192017 58.30155945 74.49942017 C57.86843445 75.69567017 57.43530945 76.89192017 56.98905945 78.12442017 C55.33701489 78.8265391 53.66982176 79.4941343 51.98905945 80.12442017 C50.61716117 83.15424322 50.61716117 83.15424322 49.98905945 86.12442017 C49.26718445 86.14504517 48.54530945 86.16567017 47.80155945 86.18692017 C43.66868429 87.56454522 42.20188437 90.51798636 39.98905945 94.12442017 C39.39093445 93.92590454 38.79280945 93.72738892 38.17655945 93.52285767 C35.75547382 92.84602123 35.75547382 92.84602123 32.98905945 94.74942017 C29.94681967 96.96832412 29.94681967 96.96832412 27.92655945 99.74942017 C25.73046528 102.44140657 24.1638975 102.90332861 20.98905945 104.12442017 C20.32003601 105.05834595 20.32003601 105.05834595 19.63749695 106.01113892 C16.30131618 110.28809104 11.19941407 112.07831664 5.98905945 113.12442017 C-3.20010146 113.95060475 -12.94943638 113.97308824 -22.01094055 112.12442017 C-22.01094055 111.46442017 -22.01094055 110.80442017 -22.01094055 110.12442017 C-23.33094055 109.79442017 -24.65094055 109.46442017 -26.01094055 109.12442017 C-26.01094055 108.79442017 -26.01094055 108.46442017 -26.01094055 108.12442017 C-23.37094055 108.12442017 -20.73094055 108.12442017 -18.01094055 108.12442017 C-18.01094055 107.46442017 -18.01094055 106.80442017 -18.01094055 106.12442017 C-9.43951198 104.83870588 -9.43951198 104.83870588 -6.01094055 106.12442017 C-6.01094055 106.78442017 -6.01094055 107.44442017 -6.01094055 108.12442017 C-5.02094055 107.79442017 -4.03094055 107.46442017 -3.01094055 107.12442017 C0.27815954 106.8928538 3.56605247 106.74338975 6.8601532 106.60098267 C10.15156268 106.09966936 11.57123713 105.34620284 13.98905945 103.12442017 C11.69858722 102.76260928 9.40662999 102.41018792 7.11405945 102.06192017 C5.83788757 101.8646936 4.5617157 101.66746704 3.24687195 101.46426392 C0.10667403 100.84161287 0.10667403 100.84161287 -2.01094055 102.12442017 C-2.01094055 101.46442017 -2.01094055 100.80442017 -2.01094055 100.12442017 C-7.78797925 99.7788466 -7.78797925 99.7788466 -13.13594055 101.68692017 C-16.71689999 103.47739989 -18.16235467 102.97110906 -22.01094055 102.12442017 C-24.68492524 102.02753666 -27.33403362 102.0782666 -30.01094055 102.12442017 C-30.01094055 100.14442017 -30.01094055 98.16442017 -30.01094055 96.12442017 C-30.67094055 96.12442017 -31.33094055 96.12442017 -32.01094055 96.12442017 C-32.01094055 95.46442017 -32.01094055 94.80442017 -32.01094055 94.12442017 C-33.33094055 94.12442017 -34.65094055 94.12442017 -36.01094055 94.12442017 C-36.34094055 96.10442017 -36.67094055 98.08442017 -37.01094055 100.12442017 C-37.34094055 100.12442017 -37.67094055 100.12442017 -38.01094055 100.12442017 C-38.01094055 98.14442017 -38.01094055 96.16442017 -38.01094055 94.12442017 C-40.65094055 93.79442017 -43.29094055 93.46442017 -46.01094055 93.12442017 C-46.01094055 92.13442017 -46.01094055 91.14442017 -46.01094055 90.12442017 C-47.66094055 89.79442017 -49.31094055 89.46442017 -51.01094055 89.12442017 C-51.34094055 88.13442017 -51.67094055 87.14442017 -52.01094055 86.12442017 C-54.98094055 86.12442017 -57.95094055 86.12442017 -61.01094055 86.12442017 C-61.34094055 83.81442017 -61.67094055 81.50442017 -62.01094055 79.12442017 C-63.15562805 78.90785767 -63.15562805 78.90785767 -64.32344055 78.68692017 C-67.01094055 78.12442017 -67.01094055 78.12442017 -70.01094055 77.12442017 C-70.01094055 74.81442017 -70.01094055 72.50442017 -70.01094055 70.12442017 C-72.65094055 70.12442017 -75.29094055 70.12442017 -78.01094055 70.12442017 C-77.97613586 69.07254517 -77.97613586 69.07254517 -77.94062805 67.99942017 C-77.82591577 61.96883155 -78.26737488 56.89998144 -80.01094055 51.12442017 C-79.35094055 50.75317017 -78.69094055 50.38192017 -78.01094055 49.99942017 C-72.88926672 46.79837402 -68.18447399 43.07845232 -63.48750305 39.28848267 C-62.86416077 38.78897095 -62.24081848 38.28945923 -61.59858704 37.77481079 C-60.34297545 36.76683685 -59.09236251 35.75260082 -57.84712219 34.73184204 C-53.34595282 31.12442017 -53.34595282 31.12442017 -50.01094055 31.12442017 C-46.22014152 39.40529184 -46.22014152 39.40529184 -45.01094055 43.56192017 C-43.78751482 46.69694859 -42.98711787 46.81140076 -40.01094055 48.12442017 C-39.08281555 49.33098267 -39.08281555 49.33098267 -38.13594055 50.56192017 C-35.71045242 53.4867735 -33.46699538 54.63203285 -30.01094055 56.12442017 C-30.01094055 56.78442017 -30.01094055 57.44442017 -30.01094055 58.12442017 C-28.01625173 58.80681371 -26.01436789 59.468125 -24.01094055 60.12442017 C-23.35351868 60.38867798 -22.6960968 60.65293579 -22.01875305 60.92520142 C-12.2483486 64.49190616 1.20569384 65.15548885 10.9539032 61.12442017 C11.96130554 60.62942017 11.96130554 60.62942017 12.98905945 60.12442017 C13.89784851 59.69129517 14.80663757 59.25817017 15.7429657 58.81192017 C18.17952607 57.61905612 20.5903916 56.39135747 22.98905945 55.12442017 C22.98905945 53.80442017 22.98905945 52.48442017 22.98905945 51.12442017 C23.64905945 50.79442017 24.30905945 50.46442017 24.98905945 50.12442017 C23.38425161 46.99835052 23.38425161 46.99835052 21.04374695 46.61270142 C19.96480164 46.5256897 19.96480164 46.5256897 18.86405945 46.43692017 C17.58530945 46.33379517 16.30655945 46.23067017 14.98905945 46.12442017 C14.98905945 46.78442017 14.98905945 47.44442017 14.98905945 48.12442017 C14.08155945 47.81504517 13.17405945 47.50567017 12.23905945 47.18692017 C9.22144993 46.1401725 9.22144993 46.1401725 6.98905945 45.68692017 C4.12522183 44.88146584 1.6177183 43.49849184 -1.01094055 42.12442017 C-1.01094055 40.80442017 -1.01094055 39.48442017 -1.01094055 38.12442017 C-2.66094055 37.79442017 -4.31094055 37.46442017 -6.01094055 37.12442017 C-6.03559065 32.01578121 -6.05377662 26.90717658 -6.06587219 21.79849243 C-6.07091259 20.05922849 -6.07774485 18.3199688 -6.08638 16.58071899 C-6.09845847 14.0861608 -6.10417163 11.59165843 -6.1085968 9.09707642 C-6.11375809 8.31478165 -6.11891937 7.53248688 -6.12423706 6.72648621 C-6.12443281 4.85874902 -6.07293749 2.99112812 -6.01094055 1.12442017 C-4.32590356 -0.56061683 -2.24834171 0.00476033 0 0 Z M37.98905945 88.12442017 C38.98905945 90.12442017 38.98905945 90.12442017 38.98905945 90.12442017 Z " fill="#4E95F5" transform="translate(190.0109405517578,153.87557983398438)"/>
<path d="M0 0 C1.3921875 1.2684375 1.3921875 1.2684375 2.8125 2.5625 C1.33956969 5.97979444 -0.57374935 8.18224068 -3.21484375 10.78515625 C-4.00697266 11.57083984 -4.79910156 12.35652344 -5.61523438 13.16601562 C-6.44345703 13.97748047 -7.27167969 14.78894531 -8.125 15.625 C-8.94935547 16.44033203 -9.77371094 17.25566406 -10.62304688 18.09570312 C-12.15521163 19.61044277 -13.68942082 21.12311923 -15.22631836 22.63305664 C-17.1396248 24.46027329 -17.1396248 24.46027329 -18.55674744 26.16279602 C-20.60129544 27.917668 -21.57741376 27.92339258 -24.24072266 27.88720703 C-25.05231842 27.88375275 -25.86391418 27.88029846 -26.70010376 27.8767395 C-27.57508514 27.85811859 -28.45006653 27.83949768 -29.3515625 27.8203125 C-30.25820648 27.81369598 -31.16485046 27.80707947 -32.09896851 27.80026245 C-35.00382226 27.77684049 -37.90791829 27.73319221 -40.8125 27.6875 C-43.69556934 27.65226409 -46.57858718 27.62139743 -49.46176147 27.59616089 C-51.2549868 27.57939585 -53.04816905 27.55643638 -54.84121704 27.52615356 C-60.3793 27.46108023 -65.69309194 27.85329861 -71.1875 28.5625 C-71.1875 29.2225 -71.1875 29.8825 -71.1875 30.5625 C-72.21810547 30.76166016 -72.21810547 30.76166016 -73.26953125 30.96484375 C-74.17058594 31.14144531 -75.07164062 31.31804687 -76 31.5 C-76.89332031 31.67402344 -77.78664062 31.84804687 -78.70703125 32.02734375 C-81.30147171 32.53991153 -81.30147171 32.53991153 -84.1875 33.5625 C-84.1875 34.2225 -84.1875 34.8825 -84.1875 35.5625 C-85.1775 36.0575 -85.1775 36.0575 -86.1875 36.5625 C-86.5175 37.5525 -86.8475 38.5425 -87.1875 39.5625 C-88.1775 40.201875 -89.1675 40.84125 -90.1875 41.5 C-93.29914048 43.22493964 -93.29914048 43.22493964 -94.0625 45.8125 C-94.10375 46.39 -94.145 46.9675 -94.1875 47.5625 C-94.8475 47.5625 -95.5075 47.5625 -96.1875 47.5625 C-96.1875 48.2225 -96.1875 48.8825 -96.1875 49.5625 C-96.8475 49.5625 -97.5075 49.5625 -98.1875 49.5625 C-98.99151671 54.26852789 -99.20196029 58.38005045 -98.72265625 63.13671875 C-97.36897922 78.6762239 -97.36897922 78.6762239 -100.62451172 83.84326172 C-104.2488805 87.71380678 -108.48964426 90.55730364 -113.04296875 93.23144531 C-116.01932348 95.07879117 -118.66562373 97.28672094 -121.34570312 99.53662109 C-123.1875 100.5625 -123.1875 100.5625 -125.34741211 100.33935547 C-127.1875 99.5625 -127.1875 99.5625 -128.34765625 97.734375 C-129.35659399 95.02640359 -130.30310769 92.31394274 -131.1875 89.5625 C-131.49042969 88.69109375 -131.79335937 87.8196875 -132.10546875 86.921875 C-138.43154544 65.1815551 -134.53990067 42.80557025 -124.04296875 23.29223633 C-122.36618495 20.31768484 -120.68862659 17.87759238 -118.1875 15.5625 C-117.31795646 14.3651846 -116.46481184 13.15585389 -115.625 11.9375 C-105.25926058 -1.92572606 -90.43372691 -10.4309276 -74.1875 -15.4375 C-73.13304687 -15.79714844 -72.07859375 -16.15679687 -70.9921875 -16.52734375 C-47.41677149 -24.17786176 -18.20677141 -15.47028272 0 0 Z " fill="#F85447" transform="translate(236.1875,104.4375)"/>
<path d="M0 0 C3.79079903 8.28087167 3.79079903 8.28087167 5 12.4375 C6.22342573 15.57252843 7.02382268 15.68698059 10 17 C10.928125 18.2065625 10.928125 18.2065625 11.875 19.4375 C14.30048813 22.36235333 16.54394517 23.50761269 20 25 C20 25.66 20 26.32 20 27 C21.99468882 27.68239354 23.99657266 28.34370484 26 29 C26.98613281 29.39638672 26.98613281 29.39638672 27.9921875 29.80078125 C37.83563932 33.39415207 51.22668775 33.99937452 61.03125 29.93359375 C61.6809375 29.62550781 62.330625 29.31742188 63 29 C63.8353125 28.64035156 64.670625 28.28070313 65.53125 27.91015625 C67.70236889 26.96866797 69.85244628 25.99356214 72 25 C72.41685059 25.36786621 72.83370117 25.73573242 73.26318359 26.11474609 C77.56057737 29.85902178 82.00007525 33.29731024 86.625 36.625 C90.82773037 39.66311834 94.98022429 42.71949338 99 46 C97.75740503 49.7277849 96.38344047 50.42574374 93.1875 52.625 C92.31480469 53.23601562 91.44210938 53.84703125 90.54296875 54.4765625 C88.27105739 55.83761539 86.5833156 56.55439311 84 57 C84 57.99 84 58.98 84 60 C82.27473958 60.68359375 80.54947917 61.3671875 78.82421875 62.05078125 C76.7901356 63.10920139 75.59910731 64.36825785 74 66 C66.69665543 71.1137817 61.88543389 71.70917589 53.125 70.4375 C50.10131207 69.71313368 50.10131207 69.71313368 48 71 C48 70.34 48 69.68 48 69 C42.2229613 68.65442644 42.2229613 68.65442644 36.875 70.5625 C33.29404056 72.35297972 31.84858588 71.84668889 28 71 C25.32601531 70.9031165 22.67690694 70.95384643 20 71 C20 69.02 20 67.04 20 65 C19.34 65 18.68 65 18 65 C18 64.34 18 63.68 18 63 C16.68 63 15.36 63 14 63 C13.67 64.98 13.34 66.96 13 69 C12.67 69 12.34 69 12 69 C12 67.02 12 65.04 12 63 C9.36 62.67 6.72 62.34 4 62 C4 61.01 4 60.02 4 59 C2.35 58.67 0.7 58.34 -1 58 C-1.33 57.01 -1.66 56.02 -2 55 C-4.97 55 -7.94 55 -11 55 C-11.33 52.69 -11.66 50.38 -12 48 C-12.763125 47.855625 -13.52625 47.71125 -14.3125 47.5625 C-17 47 -17 47 -20 46 C-20 43.69 -20 41.38 -20 39 C-22.64 39 -25.28 39 -28 39 C-27.96519531 37.948125 -27.96519531 37.948125 -27.9296875 36.875 C-27.81497522 30.84441138 -28.25643433 25.77556127 -30 20 C-29.34 19.62875 -28.68 19.2575 -28 18.875 C-22.87832617 15.67395386 -18.17353344 11.95403216 -13.4765625 8.1640625 C-12.85322021 7.66455078 -12.22987793 7.16503906 -11.58764648 6.65039062 C-10.3320349 5.64241668 -9.08142196 4.62818065 -7.83618164 3.60742188 C-3.33501226 0 -3.33501226 0 0 0 Z " fill="#39AD55" transform="translate(140,185)"/>
<path d="M0 0 C8.824209 3.9729851 16.57751743 11.38360645 24.0390625 17.46875 C25.92284766 19.0439264 25.92284766 19.0439264 28 20 C28.125 26.625 28.125 26.625 27 30 C27.1020584 31.69931675 27.26526481 33.3952981 27.46484375 35.0859375 C28.83419124 51.06080669 28.83419124 51.06080669 25.56298828 56.30273438 C21.94244675 60.16438917 17.69003804 62.99939494 13.14453125 65.66894531 C10.16817652 67.51629117 7.52187627 69.72422094 4.84179688 71.97412109 C3 73 3 73 0.84008789 72.77685547 C-1 72 -1 72 -2.16015625 70.171875 C-3.16909399 67.46390359 -4.11560769 64.75144274 -5 62 C-5.45439453 60.69289063 -5.45439453 60.69289063 -5.91796875 59.359375 C-11.57835665 39.90677432 -9.33218298 17.8433528 0 0 Z " fill="#F3C31C" transform="translate(110,132)"/>
<path d="M0 0 C1.63849822 3.27699644 0.95781242 6.58739681 0 10 C-1.48370302 12.24269301 -3.15936059 14.01777295 -5 16 C-5 16.66 -5 17.32 -5 18 C-5.94875 18.2475 -6.8975 18.495 -7.875 18.75 C-11.05852032 19.66239093 -11.05852032 19.66239093 -12.1875 21.9375 C-12.455625 22.618125 -12.72375 23.29875 -13 24 C-14.375 25.75 -14.375 25.75 -16 27 C-17.32 27 -18.64 27 -20 27 C-20.33 27.66 -20.66 28.32 -21 29 C-23.93704456 31.0095568 -25.39222485 32 -29 32 C-29 31.34 -29 30.68 -29 30 C-31.64 30.66 -34.28 31.32 -37 32 C-37 31.34 -37 30.68 -37 30 C-39.31 30 -41.62 30 -44 30 C-44 29.67 -44 29.34 -44 29 C-42.35 28.67 -40.7 28.34 -39 28 C-41.0825867 27.80438131 -43.16611856 27.61880687 -45.25 27.4375 C-46.41015625 27.33308594 -47.5703125 27.22867188 -48.765625 27.12109375 C-51.56469462 27.01629767 -53.37051631 27.21464536 -56 28 C-56.99 28 -57.98 28 -59 28 C-59.969375 28.20625 -60.93875 28.4125 -61.9375 28.625 C-65 29 -65 29 -66.92382812 27.99487305 C-70.11602743 26.46521498 -72.33283244 27.21351338 -75.6640625 28.06884766 C-79.77854856 29.70896574 -82.49125419 32.51710009 -85.5 35.6875 C-86.428125 36.58758789 -86.428125 36.58758789 -87.375 37.50585938 C-92.68041279 42.9218016 -93.04199272 47.35514468 -92.9921875 54.76953125 C-92.94046168 57.31802271 -92.87319925 59.86460419 -92.78515625 62.41210938 C-92.77097656 63.23130859 -92.75679687 64.05050781 -92.7421875 64.89453125 C-92.70907471 66.00598511 -92.70907471 66.00598511 -92.67529297 67.13989258 C-92.78244629 67.75372803 -92.88959961 68.36756348 -93 69 C-94.485 69.99 -94.485 69.99 -96 71 C-96.33 71.99 -96.66 72.98 -97 74 C-95.68 74.33 -94.36 74.66 -93 75 C-92.67 77.64 -92.34 80.28 -92 83 C-92.99 83.495 -92.99 83.495 -94 84 C-97 78.375 -97 78.375 -97 75 C-97.99 75 -98.98 75 -100 75 C-101.25262367 70.56427528 -101.18397121 66.33036524 -101.1875 61.75 C-101.19974609 60.92886719 -101.21199219 60.10773438 -101.22460938 59.26171875 C-101.23750512 53.83690811 -100.51862187 49.21013353 -99 44 C-98.34 44 -97.68 44 -97 44 C-97 43.34 -97 42.68 -97 42 C-96.34 42 -95.68 42 -95 42 C-94.9175 41.236875 -94.835 40.47375 -94.75 39.6875 C-93.84730645 36.45284809 -92.86406539 35.64900735 -90 34 C-89.34 34 -88.68 34 -88 34 C-87.67 32.68 -87.34 31.36 -87 30 C-86.34 30 -85.68 30 -85 30 C-85 29.34 -85 28.68 -85 28 C-81.83759418 25.89172945 -80.49342531 25.66182535 -76.8125 25.375 C-75.91144531 25.30023438 -75.01039063 25.22546875 -74.08203125 25.1484375 C-73.39496094 25.09945312 -72.70789063 25.05046875 -72 25 C-72 24.34 -72 23.68 -72 23 C-65.34966981 21.29084444 -59.34556467 20.72749912 -52.49609375 20.8046875 C-51.5322023 20.8075174 -50.56831085 20.81034729 -49.57521057 20.81326294 C-46.52917494 20.82436152 -43.48344514 20.84944636 -40.4375 20.875 C-38.35872824 20.88504316 -36.27995182 20.89416666 -34.20117188 20.90234375 C-29.13399869 20.92426695 -24.067051 20.95872444 -19 21 C-18.5603038 20.07232819 -18.5603038 20.07232819 -18.11172485 19.12591553 C-16.77400226 16.56783181 -15.14117594 14.91518824 -13.0859375 12.890625 C-11.94511719 11.75947266 -11.94511719 11.75947266 -10.78125 10.60546875 C-9.9871875 9.82816406 -9.193125 9.05085938 -8.375 8.25 C-7.57320313 7.45722656 -6.77140625 6.66445312 -5.9453125 5.84765625 C-3.96797154 3.89385507 -1.98611091 1.94487897 0 0 Z " fill="#AA9699" transform="translate(237,110)"/>
<path d="M0 0 C0.33 0 0.66 0 1 0 C1.73027916 36.89054474 2.16166246 73.78542099 2.28710938 110.68301392 C2.30190656 114.84309611 2.32628209 119.00295343 2.35888672 123.16293335 C2.39719496 128.12378058 2.41542936 133.08432088 2.41895103 138.04531097 C2.42343445 139.87966648 2.43467874 141.71402046 2.45334816 143.54828644 C2.58825241 157.50695535 0.63190915 168.41975698 -6.6875 180.5625 C-9.72066966 185.59872647 -9.72066966 185.59872647 -12 191 C-13.32 191 -14.64 191 -16 191 C-16 191.66 -16 192.32 -16 193 C-29.51038509 205.55324609 -45.17059156 208.30664167 -62.91430664 208.2746582 C-64.51527137 208.27901181 -66.11623401 208.28419712 -67.7171936 208.29014587 C-72.04613297 208.30348285 -76.37498474 208.30412007 -80.70394063 208.30158257 C-84.33147037 208.30050844 -87.9589827 208.30540792 -91.58650869 208.310188 C-100.15623727 208.32126662 -108.72592203 208.321731 -117.2956543 208.31567383 C-126.09959533 208.30964606 -134.90337606 208.32191836 -143.70728976 208.3432439 C-151.29492994 208.36093907 -158.88251948 208.36684853 -166.4701795 208.36360615 C-170.98885708 208.36180443 -175.50742051 208.36431654 -180.02607918 208.37832069 C-184.28369589 208.39102258 -188.54106583 208.38883997 -192.79867935 208.37590981 C-194.34808503 208.37357042 -195.89750875 208.37618205 -197.44689369 208.38453293 C-223.45146691 208.51441512 -223.45146691 208.51441512 -233 202 C-228.93817828 200.64605943 -225.88423426 201.87772722 -221.87319946 202.90614319 C-212.81276147 205.06244072 -204.30527453 205.56574509 -195.02880859 205.50170898 C-193.42338592 205.50550649 -191.81796656 205.51101817 -190.21255493 205.51808167 C-185.91555619 205.53185606 -181.61896586 205.52100083 -177.32199049 205.50437045 C-172.7987749 205.49036762 -168.27557939 205.49699624 -163.75234985 205.50050354 C-156.17256186 205.503191 -148.59293358 205.48984759 -141.01318359 205.46655273 C-132.26625048 205.43985594 -123.51958247 205.4382318 -114.77262247 205.4499411 C-106.3203719 205.46073249 -97.86821666 205.45452731 -89.41597366 205.44038582 C-85.83322504 205.43464749 -82.25054668 205.43469142 -78.66779709 205.43945122 C-74.45355571 205.44423678 -70.23960371 205.43405434 -66.02541733 205.41249657 C-64.48394242 205.40695355 -62.94243956 205.40644046 -61.40096283 205.41144943 C-53.71978218 205.43327316 -47.03898666 205.38153576 -40 202 C-39.02675781 201.65839844 -38.05351562 201.31679688 -37.05078125 200.96484375 C-24.01562216 196.0743347 -14.47294617 188.40648015 -8 176 C-7.59265625 175.25363281 -7.1853125 174.50726563 -6.765625 173.73828125 C-1.56789578 163.85129632 -0.8434398 154.37133184 -0.9375 143.3984375 C-0.94615382 141.17480542 -0.95460578 138.95117255 -0.96289062 136.72753906 C-0.96909424 135.5355188 -0.97529785 134.34349854 -0.98168945 133.11535645 C-1.01399091 126.51703037 -1.02653216 119.91870702 -1.03125 113.3203125 C-1.03179886 112.59628738 -1.03234772 111.87226227 -1.03291321 111.126297 C-1.04198935 88.49978537 -0.75514161 65.87474608 -0.5 43.25 C-0.48797546 42.17679253 -0.47595093 41.10358505 -0.46356201 39.99785614 C-0.31415971 26.66517612 -0.15993001 13.33255784 0 0 Z " fill="#E3E3E3" transform="translate(316,96)"/>
<path d="M0 0 C0.66 0 1.32 0 2 0 C2 6.93 2 13.86 2 21 C0.02 21.66 -1.96 22.32 -4 23 C-6.39754997 27.57714085 -6.1737169 31.96220985 -6 37 C-9.465 37.495 -9.465 37.495 -13 38 C-13.226875 39.11375 -13.45375 40.2275 -13.6875 41.375 C-14.120625 42.57125 -14.55375 43.7675 -15 45 C-16.65204456 45.70211894 -18.31923769 46.36971413 -20 47 C-21.37189827 50.02982306 -21.37189827 50.02982306 -22 53 C-23.0828125 53.0309375 -23.0828125 53.0309375 -24.1875 53.0625 C-28.32037516 54.44012505 -29.78717508 57.39356619 -32 61 C-32.598125 60.80148438 -33.19625 60.60296875 -33.8125 60.3984375 C-36.23358562 59.72160107 -36.23358562 59.72160107 -39 61.625 C-42.04223978 63.84390396 -42.04223978 63.84390396 -44.0625 66.625 C-46.25859417 69.31698641 -47.82516195 69.77890844 -51 71 C-51.66902344 71.93392578 -51.66902344 71.93392578 -52.3515625 72.88671875 C-55.68774327 77.16367087 -60.78964538 78.95389648 -66 80 C-75.18916091 80.82618458 -84.93849583 80.84866807 -94 79 C-94 78.34 -94 77.68 -94 77 C-95.32 76.67 -96.64 76.34 -98 76 C-98 75.67 -98 75.34 -98 75 C-95.36 75 -92.72 75 -90 75 C-90 74.34 -90 73.68 -90 73 C-81.42857143 71.71428571 -81.42857143 71.71428571 -78 73 C-78 73.66 -78 74.32 -78 75 C-76.515 74.505 -76.515 74.505 -75 74 C-72.97922026 73.97449226 -70.95837038 73.95436066 -68.9375 73.9375 C-62.31936518 73.51004809 -59.03733737 71.43403981 -54.31640625 66.91015625 C-52 65 -52 65 -48.77734375 63.93359375 C-47.86082031 63.62550781 -46.94429687 63.31742188 -46 63 C-45.67 62.01 -45.34 61.02 -45 60 C-42.39757586 58.35179805 -41.13751221 58 -38 58 C-38 57.01 -38 56.02 -38 55 C-36.09375 53.640625 -36.09375 53.640625 -33.5 52.25 C-16.63627632 42.51546287 -6.83720055 26.64598396 -1.796875 8.19921875 C-1.11816688 5.47440528 -0.5176842 2.75925681 0 0 Z M-34 55 C-33 57 -33 57 -33 57 Z " fill="#848B86" transform="translate(262,187)"/>
<path d="M0 0 C1.01979606 0.97980406 2.02197021 1.97850222 3 3 C6.10007201 4.20049407 6.10007201 4.20049407 9 5 C9 5.66 9 6.32 9 7 C10.32 7.66 11.64 8.32 13 9 C11.16223999 8.99214478 11.16223999 8.99214478 9.28735352 8.98413086 C4.70825949 8.96592502 0.12916861 8.9545114 -4.44995117 8.94506836 C-6.4255426 8.94006359 -8.40113036 8.93325775 -10.37670898 8.92456055 C-13.22901314 8.91232508 -16.08126799 8.90673298 -18.93359375 8.90234375 C-19.80584091 8.89718246 -20.67808807 8.89202118 -21.57676697 8.88670349 C-27.12861083 8.8862044 -32.49169047 9.29717375 -38 10 C-38 10.66 -38 11.32 -38 12 C-38.68707031 12.13277344 -39.37414062 12.26554688 -40.08203125 12.40234375 C-41.43361328 12.66724609 -41.43361328 12.66724609 -42.8125 12.9375 C-43.70582031 13.11152344 -44.59914062 13.28554687 -45.51953125 13.46484375 C-48.11397171 13.97741153 -48.11397171 13.97741153 -51 15 C-51 15.66 -51 16.32 -51 17 C-51.66 17.33 -52.32 17.66 -53 18 C-53.33 18.99 -53.66 19.98 -54 21 C-54.99 21.639375 -55.98 22.27875 -57 22.9375 C-60.11164048 24.66243964 -60.11164048 24.66243964 -60.875 27.25 C-60.91625 27.8275 -60.9575 28.405 -61 29 C-61.66 29 -62.32 29 -63 29 C-63 29.66 -63 30.32 -63 31 C-63.66 30.67 -64.32 30.34 -65 30 C-59.07150066 18.56346227 -53.95600338 10.97509532 -43 4 C-41.94039062 3.26910156 -41.94039062 3.26910156 -40.859375 2.5234375 C-29.59973655 -5.05687028 -12.40421407 -5.51046438 0 0 Z " fill="#826671" transform="translate(203,123)"/>
<path d="M0 0 C1.63849822 3.27699644 0.95781242 6.58739681 0 10 C-1.48370302 12.24269301 -3.15936059 14.01777295 -5 16 C-5 16.66 -5 17.32 -5 18 C-5.94875 18.2475 -6.8975 18.495 -7.875 18.75 C-11.05852032 19.66239093 -11.05852032 19.66239093 -12.1875 21.9375 C-12.455625 22.618125 -12.72375 23.29875 -13 24 C-14.375 25.75 -14.375 25.75 -16 27 C-17.32 27 -18.64 27 -20 27 C-20.33 27.66 -20.66 28.32 -21 29 C-23.93704456 31.0095568 -25.39222485 32 -29 32 C-29 31.34 -29 30.68 -29 30 C-31.64 30.66 -34.28 31.32 -37 32 C-37 31.34 -37 30.68 -37 30 C-39.31 30 -41.62 30 -44 30 C-44 29.67 -44 29.34 -44 29 C-42.35 28.67 -40.7 28.34 -39 28 C-41.0825867 27.80438131 -43.16611856 27.61880687 -45.25 27.4375 C-46.41015625 27.33308594 -47.5703125 27.22867188 -48.765625 27.12109375 C-51.56469462 27.01629767 -53.37051631 27.21464536 -56 28 C-56.99 28 -57.98 28 -59 28 C-60.423125 28.3403125 -60.423125 28.3403125 -61.875 28.6875 C-65.63997935 29.06399793 -67.00950884 28.19889056 -70 26 C-66.19972869 24.03434243 -63.10422719 22.87356088 -58.80395508 22.88647461 C-57.96331009 22.88655014 -57.1226651 22.88662567 -56.25654602 22.88670349 C-55.35333115 22.89186478 -54.45011627 22.89702606 -53.51953125 22.90234375 C-52.59154221 22.9037587 -51.66355316 22.90517365 -50.70744324 22.90663147 C-47.74242942 22.91223063 -44.77749101 22.92478296 -41.8125 22.9375 C-39.80273547 22.94251511 -37.79296975 22.947078 -35.78320312 22.95117188 C-30.85543968 22.96219979 -25.92773263 22.97946383 -21 23 C-21 22.34 -21 21.68 -21 21 C-20.34 21 -19.68 21 -19 21 C-18.75072754 20.42475586 -18.50145508 19.84951172 -18.24462891 19.25683594 C-16.82126077 16.67589928 -15.18451214 14.95787763 -13.0859375 12.890625 C-12.32539063 12.13652344 -11.56484375 11.38242188 -10.78125 10.60546875 C-9.9871875 9.82816406 -9.193125 9.05085938 -8.375 8.25 C-7.17230469 7.06083984 -7.17230469 7.06083984 -5.9453125 5.84765625 C-3.96797154 3.89385507 -1.98611091 1.94487897 0 0 Z " fill="#C0ABB8" transform="translate(237,110)"/>
<path d="M0 0 C0.89138672 0.18175781 0.89138672 0.18175781 1.80078125 0.3671875 C2.62964844 0.53476562 3.45851563 0.70234375 4.3125 0.875 C5.11300781 1.03742188 5.91351563 1.19984375 6.73828125 1.3671875 C8.35283203 1.68042969 8.35283203 1.68042969 10 2 C10.7102149 2.16195012 11.4204298 2.32390024 12.15216637 2.49075794 C20.51938592 4.25292645 28.78180322 4.27601261 37.28759766 4.24291992 C38.90334144 4.24399488 40.51908484 4.24593671 42.13482666 4.24867249 C46.48951417 4.25348606 50.84409794 4.2459119 55.19877291 4.23571944 C59.76267142 4.226894 64.32656711 4.22869717 68.89047241 4.2290802 C76.54141972 4.2281464 84.19232714 4.21949585 91.84326172 4.20581055 C100.69747783 4.19003183 109.55165047 4.18481452 118.40587962 4.1855461 C126.92912502 4.18615526 135.45235624 4.18106368 143.97559738 4.17275429 C147.60318487 4.16921792 151.23076735 4.16739056 154.85835648 4.16686058 C159.11834822 4.16585984 163.37830316 4.15978545 167.63828278 4.14969444 C169.20527547 4.14676252 170.7722724 4.14554546 172.33926773 4.14612198 C174.4687821 4.1466092 176.5981918 4.14099179 178.72769165 4.13371277 C179.92187525 4.13203692 181.11605885 4.13036108 182.34642982 4.12863445 C184.92233234 4.30168097 184.92233234 4.30168097 186 3 C187.76290907 2.62702089 189.53591812 2.30119534 191.3125 2 C194.58062786 1.44149484 197.7950444 0.85262477 201 0 C200 3 200 3 198 4.0625 C188.62390004 6.99253124 179.82219385 7.29220848 170.08569336 7.2746582 C168.48472863 7.27901181 166.88376599 7.28419712 165.2828064 7.29014587 C160.95386703 7.30348285 156.62501526 7.30412007 152.29605937 7.30158257 C148.66852963 7.30050844 145.0410173 7.30540792 141.41349131 7.310188 C132.84376273 7.32126662 124.27407797 7.321731 115.7043457 7.31567383 C106.90040467 7.30964606 98.09662394 7.32191836 89.29271024 7.3432439 C81.70507006 7.36093907 74.11748052 7.36684853 66.5298205 7.36360615 C62.01114292 7.36180443 57.49257949 7.36431654 52.97392082 7.37832069 C48.71630411 7.39102258 44.45893417 7.38883997 40.20132065 7.37590981 C38.65191497 7.37357042 37.10249125 7.37618205 35.55310631 7.38453293 C9.1422002 7.51644458 9.1422002 7.51644458 0 1 C0 0.67 0 0.34 0 0 Z " fill="#7E7E7E" transform="translate(83,297)"/>
<path d="M0 0 C14.92503789 -0.0467164 29.85007012 -0.08198708 44.77516556 -0.10362434 C51.7051157 -0.11393784 58.63502042 -0.12799956 65.56494141 -0.15087891 C72.24982072 -0.17293873 78.93464305 -0.18456143 85.61956024 -0.18975449 C88.17289728 -0.19345639 90.72623166 -0.20068505 93.27954865 -0.21146011 C96.84950902 -0.22592939 100.41927295 -0.22797983 103.98925781 -0.22705078 C105.05021164 -0.23424133 106.11116547 -0.24143188 107.20426941 -0.24884033 C108.66395897 -0.24471634 108.66395897 -0.24471634 110.15313721 -0.24050903 C110.99749958 -0.24235262 111.84186195 -0.24419621 112.71181107 -0.24609566 C115.20882238 0.02245893 116.84161821 0.7472903 119 2 C106.41214836 6.19964556 93.40639502 5.37486709 80.3125 5.25 C77.89315171 5.23673166 75.47379925 5.22420398 73.05444336 5.21240234 C66.03586631 5.17052993 59.01805668 5.09418263 52 5 C51.02377686 4.98690796 50.04755371 4.97381592 49.04174805 4.96032715 C43.38107875 4.879646 37.7219437 4.76699756 32.0625 4.625 C31.37370758 4.6098938 30.68491516 4.5947876 29.97525024 4.57922363 C23.26240996 4.42235539 17.3906634 4.02342905 11 2 C8.17129555 1.96201596 8.17129555 1.96201596 5.5625 2.375 C4.26505859 2.54128906 4.26505859 2.54128906 2.94140625 2.7109375 C2.30074219 2.80632812 1.66007812 2.90171875 1 3 C0.67 2.01 0.34 1.02 0 0 Z " fill="#BEBEBE" transform="translate(124,320)"/>
<path d="M0 0 C14.19 0 28.38 0 43 0 C41.875 7.875 41.875 7.875 39.4375 11.9375 C38.98246094 12.70964844 38.52742188 13.48179687 38.05859375 14.27734375 C37.53458984 15.13005859 37.53458984 15.13005859 37 16 C36.505 14.02 36.505 14.02 36 12 C34.71867187 12.00902344 33.43734375 12.01804688 32.1171875 12.02734375 C20.31401629 11.89815367 12.05226518 10.37420127 2 4 C2 3.34 2 2.68 2 2 C1.34 2 0.68 2 0 2 C0 1.34 0 0.68 0 0 Z " fill="#6070A0" transform="translate(186,185)"/>
<path d="M0 0 C0.79921875 -0.01224609 1.5984375 -0.02449219 2.421875 -0.03710938 C7.12521196 -0.048713 10.8192423 0.43595596 15.25 2.1875 C20.20870072 3.60559572 25.13483118 4.5481039 30.25 5.1875 C30.25 5.5175 30.25 5.8475 30.25 6.1875 C29.11570557 6.18226318 27.98141113 6.17702637 26.81274414 6.17163086 C22.56909995 6.15341072 18.32545916 6.14200629 14.08178711 6.13256836 C12.25170305 6.12756681 10.42162293 6.12076344 8.59155273 6.11206055 C5.94774396 6.09981068 3.30398842 6.09422977 0.66015625 6.08984375 C-0.14646957 6.08468246 -0.9530954 6.07952118 -1.78416443 6.07420349 C-7.17943409 6.07368113 -12.3962362 6.51155516 -17.75 7.1875 C-17.75 7.8475 -17.75 8.5075 -17.75 9.1875 C-18.43707031 9.32027344 -19.12414062 9.45304688 -19.83203125 9.58984375 C-21.18361328 9.85474609 -21.18361328 9.85474609 -22.5625 10.125 C-23.45582031 10.29902344 -24.34914062 10.47304687 -25.26953125 10.65234375 C-27.86397171 11.16491153 -27.86397171 11.16491153 -30.75 12.1875 C-30.75 12.8475 -30.75 13.5075 -30.75 14.1875 C-31.74 14.6825 -31.74 14.6825 -32.75 15.1875 C-33.08 16.1775 -33.41 17.1675 -33.75 18.1875 C-34.74 18.826875 -35.73 19.46625 -36.75 20.125 C-39.86164048 21.84993964 -39.86164048 21.84993964 -40.625 24.4375 C-40.66625 25.015 -40.7075 25.5925 -40.75 26.1875 C-41.41 26.1875 -42.07 26.1875 -42.75 26.1875 C-42.75 26.8475 -42.75 27.5075 -42.75 28.1875 C-43.41 27.8575 -44.07 27.5275 -44.75 27.1875 C-35.45074196 9.24850577 -35.45074196 9.24850577 -29.25 6.8125 C-28.095 6.60625 -26.94 6.4 -25.75 6.1875 C-23.74568551 5.53391919 -21.7459722 4.86613055 -19.75 4.1875 C-18.98945313 3.93742188 -18.22890625 3.68734375 -17.4453125 3.4296875 C-16.63835937 3.16414062 -15.83140625 2.89859375 -15 2.625 C-14.24203125 2.37621094 -13.4840625 2.12742187 -12.703125 1.87109375 C-8.30724359 0.33253526 -4.70387806 0.00372142 0 0 Z " fill="#8B7580" transform="translate(182.75,125.8125)"/>
<path d="M0 0 C0 0.66 0 1.32 0 2 C-1.72526042 2.68359375 -3.45052083 3.3671875 -5.17578125 4.05078125 C-7.2098644 5.10920139 -8.40089269 6.36825785 -10 8 C-17.30334457 13.1137817 -22.11456611 13.70917589 -30.875 12.4375 C-33.89868793 11.71313368 -33.89868793 11.71313368 -36 13 C-36 12.34 -36 11.68 -36 11 C-41.7770387 10.65442644 -41.7770387 10.65442644 -47.125 12.5625 C-50.70595944 14.35297972 -52.15141412 13.84668889 -56 13 C-58.67398469 12.9031165 -61.32309306 12.95384643 -64 13 C-64 11.02 -64 9.04 -64 7 C-64.66 7 -65.32 7 -66 7 C-66 6.34 -66 5.68 -66 5 C-66.99 4.67 -67.98 4.34 -69 4 C-67.35 4 -65.7 4 -64 4 C-64 4.66 -64 5.32 -64 6 C-44.34998855 8.92659745 -22.20808299 10.25192546 -3.859375 0.91015625 C-2 0 -2 0 0 0 Z " fill="#6E7771" transform="translate(224,243)"/>
<path d="M0 0 C2.50188767 2.50188767 4.1038733 4.57996488 6 7.5 C12.44789833 16.8106016 20.99204394 26.33068131 32 30 C32 30.66 32 31.32 32 32 C35.62197194 33.49140021 39.27566618 34.7874262 43 36 C42.34 38.64 41.68 41.28 41 44 C40.67 44 40.34 44 40 44 C40 42.02 40 40.04 40 38 C37.36 37.67 34.72 37.34 32 37 C32 36.01 32 35.02 32 34 C30.35 33.67 28.7 33.34 27 33 C26.67 32.01 26.34 31.02 26 30 C23.03 30 20.06 30 17 30 C16.67 27.69 16.34 25.38 16 23 C15.236875 22.855625 14.47375 22.71125 13.6875 22.5625 C11 22 11 22 8 21 C8 18.69 8 16.38 8 14 C5.36 14 2.72 14 0 14 C0 9.38 0 4.76 0 0 Z " fill="#A3ADA4" transform="translate(112,210)"/>
<path d="M0 0 C1.98 0.99 1.98 0.99 4 2 C4 2.66 4 3.32 4 4 C5.11955078 4.17015625 5.11955078 4.17015625 6.26171875 4.34375 C9.05024374 5.0120413 10.49390961 5.87557007 12.8125 7.5 C18.43039039 10.80240854 24.08136154 10.70529073 30.42578125 10.859375 C33.19437749 10.96830338 35.38838055 11.16750434 38 12 C38 13.32 38 14.64 38 16 C37.34 16 36.68 16 36 16 C35.7525 16.5775 35.505 17.155 35.25 17.75 C33.83316683 20.3002997 32.12372463 22.01785701 30 24 C29.67 22.68 29.34 21.36 29 20 C29.66 19.67 30.32 19.34 31 19 C29.39519216 15.87393036 29.39519216 15.87393036 27.0546875 15.48828125 C25.97574219 15.40126953 25.97574219 15.40126953 24.875 15.3125 C23.59625 15.209375 22.3175 15.10625 21 15 C21 15.66 21 16.32 21 17 C19.63875 16.5359375 19.63875 16.5359375 18.25 16.0625 C15.23239048 15.01575233 15.23239048 15.01575233 13 14.5625 C10.13616238 13.75704567 7.62865885 12.37407167 5 11 C5 9.68 5 8.36 5 7 C3.35 6.67 1.7 6.34 0 6 C0 4.02 0 2.04 0 0 Z " fill="#8EA0AF" transform="translate(184,185)"/>
<path d="M0 0 C1.76227952 2.64341928 3.19871008 5.23077235 4.625 8.0625 C5.07101563 8.94035156 5.51703125 9.81820312 5.9765625 10.72265625 C7 13 7 13 7 15 C7.5775 15.226875 8.155 15.45375 8.75 15.6875 C11 17 11 17 12.875 19.4375 C15.30048813 22.36235333 17.54394517 23.50761269 21 25 C21 25.66 21 26.32 21 27 C22.99468882 27.68239354 24.99657266 28.34370484 27 29 C27.65742188 29.26425781 28.31484375 29.52851563 28.9921875 29.80078125 C38.83563932 33.39415207 52.22668775 33.99937452 62.03125 29.93359375 C62.6809375 29.62550781 63.330625 29.31742188 64 29 C64.8353125 28.64035156 65.670625 28.28070313 66.53125 27.91015625 C68.70222417 26.96873072 70.8550473 25.9989496 73 25 C73.99 26.485 73.99 26.485 75 28 C64.7726012 33.93189131 54.06301159 35.2609001 42.4375 35.375 C41.5805957 35.38885742 40.72369141 35.40271484 39.84082031 35.41699219 C34.97256381 35.3804177 32.05495563 34.9269407 28 32 C25.68308546 31.27833809 23.35151077 30.59940471 21 30 C21 29.34 21 28.68 21 28 C20.29875 27.7525 19.5975 27.505 18.875 27.25 C15.60485452 25.82819762 12.858878 24.12753712 10 22 C10 21.34 10 20.68 10 20 C9.34 20 8.68 20 8 20 C8 19.34 8 18.68 8 18 C7.34 18 6.68 18 6 18 C2.90469675 12.78996666 0.21880914 7.97216479 -1 2 C-0.67 1.34 -0.34 0.68 0 0 Z " fill="#57CF76" transform="translate(139,185)"/>
<path d="M0 0 C1.07461739 0.00539291 1.07461739 0.00539291 2.17094421 0.01089478 C2.92211517 0.01074875 3.67328613 0.01060272 4.44721985 0.01045227 C6.94166404 0.01115153 9.43603448 0.01894452 11.9304657 0.02676392 C13.65539509 0.02862805 15.38032501 0.03005197 17.10525513 0.03105164 C21.65418448 0.03487719 26.20308211 0.04470779 30.7519989 0.05575562 C35.39025951 0.06596893 40.02852522 0.07054908 44.66679382 0.07559204 C53.77422967 0.08633003 62.88164192 0.1034069 71.98905945 0.12442017 C73.7670014 3.43422214 74.21351002 5.59529838 74.11405945 9.37442017 C74.09601257 10.26645142 74.0779657 11.15848267 74.05937195 12.07754517 C74.03616882 12.75301392 74.0129657 13.42848267 73.98905945 14.12442017 C73.32905945 14.12442017 72.66905945 14.12442017 71.98905945 14.12442017 C72.0867157 12.106191 72.18437195 10.08796183 72.2820282 8.06973267 C72.18534851 7.42777954 72.08866882 6.78582642 71.98905945 6.12442017 C70.99905945 5.46442017 70.00905945 4.80442017 68.98905945 4.12442017 C68.65905945 5.11442017 68.32905945 6.10442017 67.98905945 7.12442017 C67.98905945 5.80442017 67.98905945 4.48442017 67.98905945 3.12442017 C43.89905945 2.79442017 19.80905945 2.46442017 -5.01094055 2.12442017 C-5.01094055 11.69442017 -5.01094055 21.26442017 -5.01094055 31.12442017 C-5.34094055 31.12442017 -5.67094055 31.12442017 -6.01094055 31.12442017 C-6.03559677 26.87027394 -6.05377954 22.61616519 -6.06587219 18.36196899 C-6.07091156 16.91371944 -6.07774308 15.465475 -6.08638 14.01724243 C-6.09846302 11.93967429 -6.10417266 9.86217319 -6.1085968 7.78457642 C-6.11383362 6.53297729 -6.11907043 5.28137817 -6.12446594 3.99185181 C-5.93597292 -0.76911711 -4.30390956 0.00911251 0 0 Z " fill="#76B6F6" transform="translate(190.0109405517578,153.87557983398438)"/>
<path d="M0 0 C0 0.66 0 1.32 0 2 C0.99 1.67 1.98 1.34 3 1 C4.44443451 0.85441402 5.8936777 0.75342683 7.34375 0.68359375 C8.59478516 0.62075195 8.59478516 0.62075195 9.87109375 0.55664062 C11.17240234 0.49766602 11.17240234 0.49766602 12.5 0.4375 C13.80130859 0.37272461 13.80130859 0.37272461 15.12890625 0.30664062 C18.42424137 0.14620313 21.70020505 0 25 0 C23.21239051 3.57521897 19.6420719 4.48983179 16.07421875 5.953125 C6.4169892 8.92610995 -6.19758126 7.99982456 -16 6 C-16 5.34 -16 4.68 -16 4 C-17.32 3.67 -18.64 3.34 -20 3 C-20 2.67 -20 2.34 -20 2 C-17.36 2 -14.72 2 -12 2 C-12 1.34 -12 0.68 -12 0 C-7.66726186 -0.92844389 -4.33273814 -0.92844389 0 0 Z " fill="#999A97" transform="translate(184,260)"/>
<path d="M0 0 C0.99 0.495 0.99 0.495 2 1 C-0.40893063 4.44132947 -2.7186917 5.37676914 -6.68916321 6.12435913 C-13.99771777 7.33403081 -21.28140578 7.22166717 -28.66088867 7.13525391 C-30.2092838 7.12480643 -31.75768534 7.11527523 -33.30609131 7.10658264 C-37.47690485 7.08060685 -41.64751237 7.04193718 -45.81820083 7.00085878 C-50.18899317 6.96001129 -54.55986441 6.93101747 -58.93074036 6.90072632 C-67.19299961 6.84168628 -75.45513448 6.77210049 -83.71727687 6.69865549 C-93.12962614 6.61550465 -102.54205382 6.54421726 -111.95450628 6.47388959 C-131.30312017 6.32905734 -150.65158679 6.16944636 -170 6 C-170 5.67 -170 5.34 -170 5 C-169.19693955 4.99576806 -168.39387911 4.99153612 -167.5664835 4.98717594 C-148.05501814 4.88401475 -128.54359018 4.77539912 -109.03218937 4.66066074 C-99.59674906 4.60530736 -90.16130498 4.55182195 -80.72583008 4.50268555 C-72.50493941 4.45986955 -64.28407683 4.4135982 -56.0632295 4.36312145 C-51.70759326 4.33649961 -47.35196267 4.31164611 -42.99629402 4.29092598 C-38.90140656 4.27139192 -34.80657265 4.24725804 -30.71173286 4.21950912 C-29.20442168 4.21012151 -27.69709872 4.20245243 -26.18976974 4.19658089 C-24.14069573 4.18834875 -22.09165149 4.17348313 -20.0426178 4.15821838 C-18.89314195 4.15176583 -17.7436661 4.14531328 -16.55935764 4.1386652 C-14.06670849 4.28931399 -14.06670849 4.28931399 -13 3 C-11.19481074 2.62911039 -9.38038572 2.30258696 -7.5625 2 C-3.65317462 1.39444481 -3.65317462 1.39444481 0 0 Z " fill="#919191" transform="translate(282,297)"/>
<path d="M0 0 C1.09950077 0.9184854 2.18977567 1.84894318 3.25 2.8125 C2.59 3.1425 1.93 3.4725 1.25 3.8125 C-1.10981813 2.87671005 -3.44631264 1.87902192 -5.75 0.8125 C-5.75 0.1525 -5.75 -0.5075 -5.75 -1.1875 C-20.3482311 -4.65148704 -33.87092137 -4.85408513 -47 2.75 C-50.45014189 4.89830264 -53.59475366 7.24886235 -56.75 9.8125 C-57.41 9.8125 -58.07 9.8125 -58.75 9.8125 C-59.01941406 10.38226563 -59.28882813 10.95203125 -59.56640625 11.5390625 C-60.79112761 13.89149759 -62.18260962 16.00483457 -63.6875 18.1875 C-66.01966516 21.63727976 -68.00658783 25.03510697 -69.75 28.8125 C-70.75579304 26.16922682 -70.83377402 25.04508313 -69.859375 22.33984375 C-69.41078125 21.48519531 -68.9621875 20.63054687 -68.5 19.75 C-67.84257812 18.46416016 -67.84257812 18.46416016 -67.171875 17.15234375 C-65.85878376 14.99151503 -64.69971541 13.41105699 -62.75 11.8125 C-62.09 11.8125 -61.43 11.8125 -60.75 11.8125 C-60.71261719 11.25949219 -60.67523438 10.70648438 -60.63671875 10.13671875 C-59.28704754 6.59903429 -56.49861668 4.82951539 -53.5625 2.625 C-52.99724609 2.17447266 -52.43199219 1.72394531 -51.84960938 1.25976562 C-48.2060057 -1.52406444 -45.44604264 -2.82407333 -40.75 -3.1875 C-40.75 -3.8475 -40.75 -4.5075 -40.75 -5.1875 C-27.68732581 -7.75856603 -11.0779569 -8.16372085 0 0 Z " fill="#B33A34" transform="translate(208.75,124.1875)"/>
<path d="M0 0 C1.65 0 3.3 0 5 0 C5.08681476 3.62484999 5.14032721 7.24943443 5.1875 10.875 C5.22520508 12.42380859 5.22520508 12.42380859 5.26367188 14.00390625 C5.27817383 15.48310547 5.27817383 15.48310547 5.29296875 16.9921875 C5.31653442 18.35899658 5.31653442 18.35899658 5.34057617 19.75341797 C5.22818604 20.49479004 5.1157959 21.23616211 5 22 C4.01 22.66 3.02 23.32 2 24 C1.67 24.99 1.34 25.98 1 27 C2.32 27.33 3.64 27.66 5 28 C5.33 30.64 5.66 33.28 6 36 C5.01 36.495 5.01 36.495 4 37 C1 31.375 1 31.375 1 28 C0.01 28 -0.98 28 -2 28 C-3.28632669 23.47379812 -3.18399318 19.11209283 -3.1875 14.4375 C-3.19974609 13.57447266 -3.21199219 12.71144531 -3.22460938 11.82226562 C-3.22654297 10.99275391 -3.22847656 10.16324219 -3.23046875 9.30859375 C-3.23457764 8.55376709 -3.23868652 7.79894043 -3.24291992 7.02124023 C-3 5 -3 5 -1 2 C-0.67 2.33 -0.34 2.66 0 3 C0 2.01 0 1.02 0 0 Z " fill="#DBC397" transform="translate(139,157)"/>
<path d="M0 0 C0.33 0 0.66 0 1 0 C1.45882227 1.97905338 1.91702908 3.95824944 2.375 5.9375 C2.65085938 7.1234375 2.92671875 8.309375 3.2109375 9.53125 C3.84713064 12.32798025 4.43204837 15.12662076 5 17.9375 C5.79865995 21.61945773 7.21455398 24.67257788 9 28 C9 28.66 9 29.32 9 30 C9.66 30.33 10.32 30.66 11 31 C11.69997539 32.65295393 12.36227985 34.32204433 13 36 C18.12727866 46.36807641 28.93207559 49.78709517 39 54 C38.34 54.99 37.68 55.98 37 57 C35.948125 56.690625 34.89625 56.38125 33.8125 56.0625 C30.87247604 55.24314906 27.99838377 54.54516069 25 54 C25 53.01 25 52.02 25 51 C24.40703125 50.72027344 23.8140625 50.44054687 23.203125 50.15234375 C13.16250428 44.90060064 6.54424937 34.82297383 3.0625 24.3125 C0.5115182 16.11896269 -0.1781211 8.54981301 0 0 Z " fill="#B5B5B5" transform="translate(47,242)"/>
<path d="M0 0 C26.73 0 53.46 0 81 0 C81 0.66 81 1.32 81 2 C53.7433143 4.11996444 26.28589844 3.03089809 -1 2 C-0.67 1.34 -0.34 0.68 0 0 Z " fill="#B1B1B1" transform="translate(145,320)"/>
<path d="M0 0 C1.15886719 -0.00128906 2.31773437 -0.00257813 3.51171875 -0.00390625 C4.72472656 -0.00003906 5.93773437 0.00382813 7.1875 0.0078125 C8.36957031 0.00394531 9.55164063 0.00007812 10.76953125 -0.00390625 C17.96475049 0.00402674 25.03631924 0.33195323 32.1875 1.1328125 C28.80194171 4.78216474 26.24650834 4.74889981 21.37890625 5.0859375 C16.89319831 5.15182305 12.49275192 4.76569484 8.03515625 4.2890625 C5.40056027 4.14450305 3.68130787 4.4002901 1.1875 5.1328125 C0.1975 5.1328125 -0.7925 5.1328125 -1.8125 5.1328125 C-3.235625 5.473125 -3.235625 5.473125 -4.6875 5.8203125 C-8.45247935 6.19681043 -9.82200884 5.33170306 -12.8125 3.1328125 C-8.37762002 0.83890906 -5.00212473 0.00539687 0 0 Z " fill="#B0A4AD" transform="translate(179.8125,132.8671875)"/>
<path d="M0 0 C0.66 0 1.32 0 2 0 C2 6.93 2 13.86 2 21 C0.02 21.66 -1.96 22.32 -4 23 C-6.39754997 27.57714085 -6.1737169 31.96220985 -6 37 C-9.465 37.495 -9.465 37.495 -13 38 C-13.33 39.98 -13.66 41.96 -14 44 C-14.66 43.67 -15.32 43.34 -16 43 C-15.17239975 37.78611844 -14.26546778 34.0077324 -11.1875 29.6875 C-4.82111452 20.72797702 -2.1158131 10.66507414 0 0 Z " fill="#ABB4CD" transform="translate(262,187)"/>
<path d="M0 0 C0.33 0 0.66 0 1 0 C1.07347656 1.86591797 1.07347656 1.86591797 1.1484375 3.76953125 C1.53467446 12.64941335 1.98789386 21.30692009 4 30 C2.35 30 0.7 30 -1 30 C-1.33 28.35 -1.66 26.7 -2 25 C-2.99 24.67 -3.98 24.34 -5 24 C-5.08685287 20.70849875 -5.14033895 17.4172904 -5.1875 14.125 C-5.21263672 13.18785156 -5.23777344 12.25070313 -5.26367188 11.28515625 C-5.27333984 10.38925781 -5.28300781 9.49335938 -5.29296875 8.5703125 C-5.3086792 7.74289551 -5.32438965 6.91547852 -5.34057617 6.06298828 C-5.22818604 5.38220215 -5.1157959 4.70141602 -5 4 C-4.01 3.34 -3.02 2.68 -2 2 C-2 3.32 -2 4.64 -2 6 C-1.34 6 -0.68 6 0 6 C0 4.02 0 2.04 0 0 Z " fill="#E8DAC8" transform="translate(101,162)"/>
<path d="M0 0 C0.66 0 1.32 0 2 0 C1.49734231 5.12867923 -0.35901479 8.86127074 -3 13.1875 C-5.86724906 17.91262807 -5.86724906 17.91262807 -8 23 C-9.32 23 -10.64 23 -12 23 C-12 23.66 -12 24.32 -12 25 C-14.49636033 27.21757897 -17.27829908 29.0692627 -20 31 C-20.56976563 31.43441406 -21.13953125 31.86882812 -21.7265625 32.31640625 C-23.25 33.4375 -23.25 33.4375 -26 35 C-28.0625 34.625 -28.0625 34.625 -30 34 C-31.2375 34.495 -31.2375 34.495 -32.5 35 C-35.32559344 36.13023738 -36.1893225 35.85749483 -39 35 C-38.06800781 34.68289063 -37.13601563 34.36578125 -36.17578125 34.0390625 C-21.89706861 28.92202121 -11.18290567 21.81170147 -4 8 C-3.56945312 7.18402344 -3.13890625 6.36804688 -2.6953125 5.52734375 C-1.7619017 3.7023647 -0.87449589 1.85393128 0 0 Z " fill="#B1B1B1" transform="translate(312,264)"/>
<path d="M0 0 C-3.13349732 1.04449911 -3.98968256 0.93423645 -7 0 C-7 -0.66 -7 -1.32 -7 -2 C-12.94 -3.485 -12.94 -3.485 -19 -5 C-19 -4.67 -19 -4.34 -19 -4 C-21.31 -4 -23.62 -4 -26 -4 C-26 -4.66 -26 -5.32 -26 -6 C-26.66 -6.33 -27.32 -6.66 -28 -7 C-28 -7.33 -28 -7.66 -28 -8 C-36.01279431 -9.30821132 -46.22596065 -10.59134645 -54 -8 C-56.06145107 -7.931009 -58.12501401 -7.91532273 -60.1875 -7.9375 C-61.81751953 -7.95103516 -61.81751953 -7.95103516 -63.48046875 -7.96484375 C-64.31191406 -7.97644531 -65.14335937 -7.98804687 -66 -8 C-46.71020587 -18.34002478 -17.36051246 -10.90078689 0 0 Z " fill="#FD847A" transform="translate(228,98)"/>
<path d="M0 0 C2.95409701 1.37154504 5.44008376 2.98863724 8 5 C7.814375 5.61875 7.62875 6.2375 7.4375 6.875 C6.76313824 9.04160178 6.76313824 9.04160178 8 11 C5.69 11.33 3.38 11.66 1 12 C0.34 14.64 -0.32 17.28 -1 20 C-2.32 20 -3.64 20 -5 20 C-6.43742402 16.19128414 -5.51565845 13.75451152 -4.1875 10 C-3.83042969 8.96875 -3.47335938 7.9375 -3.10546875 6.875 C-2.18819407 4.48943759 -1.19750105 2.25411962 0 0 Z " fill="#F5CA17" transform="translate(110,132)"/>
<path d="M0 0 C0.33 0 0.66 0 1 0 C1.04641472 11.20520773 1.08191561 22.41039246 1.10362434 33.61567688 C1.11404534 38.81917729 1.12817378 44.02261176 1.15087891 49.22607422 C1.17266733 54.2511052 1.18458129 59.27607288 1.18975449 64.30114746 C1.19343948 66.21481319 1.20063529 68.1284756 1.21146011 70.04211426 C1.22605477 72.72997426 1.22797461 75.41757527 1.22705078 78.10546875 C1.23424133 78.89022079 1.24143188 79.67497284 1.24884033 80.48350525 C1.22979866 85.62967276 0.41720268 90.04876249 -1 95 C-1.66 94.34 -2.32 93.68 -3 93 C-2.6875 90.375 -2.6875 90.375 -2 87 C-0.86947597 79.90401606 -0.88835572 72.9366352 -0.9375 65.76171875 C-0.94329043 63.81142874 -0.94907442 61.86113869 -0.95451355 59.91084766 C-0.96754504 55.82455374 -0.98954584 51.73829883 -1.01037598 47.65203857 C-1.0900763 31.73549985 -1.12906869 15.88382912 0 0 Z " fill="#D9D9D9" transform="translate(316,171)"/>
<path d="M0 0 C2 3 2 3 3 5 C4.44901548 5.88472178 5.93418588 6.71106075 7.4375 7.5 C13.57754705 10.73264114 13.57754705 10.73264114 15 15 C16.0725 15.0825 17.145 15.165 18.25 15.25 C22.31407952 16.0628159 23.53072559 16.77094885 26 20 C26.33 20.99 26.66 21.98 27 23 C22.43545749 22.45660208 19.0271824 21.20536179 15 19 C15 18.34 15 17.68 15 17 C14.13375 16.814375 13.2675 16.62875 12.375 16.4375 C8.50803139 14.79045781 6.93403678 12.99300008 4.39453125 9.75390625 C3.03116166 7.96390969 3.03116166 7.96390969 1.37109375 6.41015625 C-0.31319013 4.67788707 -0.68367645 3.37242664 -1 1 C-0.67 0.67 -0.34 0.34 0 0 Z " fill="#CAE4D0" transform="translate(145,193)"/>
<path d="M0 0 C14.19 0 28.38 0 43 0 C41.81690141 8.28169014 41.81690141 8.28169014 39 12 C38.34 12 37.68 12 37 12 C36.89996289 8.49870129 37.27021695 5.41906232 38 2 C36.65035156 2.01740234 36.65035156 2.01740234 35.2734375 2.03515625 C23.49196914 2.1177918 11.76400456 1.61162413 0 1 C0 0.67 0 0.34 0 0 Z " fill="#355DA7" transform="translate(186,185)"/>
<path d="M0 0 C-1.33333333 0.66666667 -2.66666667 1.33333333 -4 2 C-4.680625 2.37125 -5.36125 2.7425 -6.0625 3.125 C-8 4 -8 4 -11 4 C-11 4.66 -11 5.32 -11 6 C-12.65 6.66 -14.3 7.32 -16 8 C-16 8.66 -16 9.32 -16 10 C-16.99 10.495 -16.99 10.495 -18 11 C-18.33 11.99 -18.66 12.98 -19 14 C-19.99 14.639375 -20.98 15.27875 -22 15.9375 C-25.11164048 17.66243964 -25.11164048 17.66243964 -25.875 20.25 C-25.91625 20.8275 -25.9575 21.405 -26 22 C-26.66 22 -27.32 22 -28 22 C-28 22.66 -28 23.32 -28 24 C-28.66 23.67 -29.32 23.34 -30 23 C-20.70074196 5.06100577 -20.70074196 5.06100577 -14.5 2.625 C-12.7675 2.315625 -12.7675 2.315625 -11 2 C-9.96875 1.62875 -8.9375 1.2575 -7.875 0.875 C-5.0680792 0.02071976 -2.91066626 -0.17121566 0 0 Z " fill="#987171" transform="translate(168,130)"/>
<path d="M0 0 C0.87072144 0.10610596 0.87072144 0.10610596 1.7590332 0.21435547 C8.58591211 0.97939616 15.32202799 1.15079388 22.1875 1.125 C23.22841797 1.12886719 24.26933594 1.13273437 25.34179688 1.13671875 C30.6691709 1.12995383 35.75255978 0.93518737 41 0 C39.55870887 2.88258226 37.36364073 3.35066898 34.44238281 4.38476562 C29.95124541 5.51607972 25.47831537 5.34939682 20.875 5.25 C19.43060547 5.24226563 19.43060547 5.24226563 17.95703125 5.234375 C13.20516393 5.18208485 8.67036985 4.97495936 4 4 C4 3.34 4 2.68 4 2 C2.68 1.67 1.36 1.34 0 1 C0 0.67 0 0.34 0 0 Z " fill="#A6A6A5" transform="translate(164,262)"/>
<path d="M0 0 C0.99 0.33 1.98 0.66 3 1 C-2.61802347 5.34901111 -8.40526626 8.9034054 -14.8125 11.9375 C-15.44615479 12.24373291 -16.07980957 12.54996582 -16.73266602 12.86547852 C-20.29092521 14.49969419 -23.07862829 15.36599469 -27 15 C-26.814375 14.38125 -26.62875 13.7625 -26.4375 13.125 C-25.76313824 10.95839822 -25.76313824 10.95839822 -27 9 C-23.62825176 7.87608392 -20.9245065 7.89369786 -17.375 7.8125 C-10.05659749 7.36505363 -5.17967741 5.17967741 0 0 Z " fill="#35A951" transform="translate(235,233)"/>
<path d="M0 0 C0.66 0 1.32 0 2 0 C2.33 7.92 2.66 15.84 3 24 C15.87 24 28.74 24 42 24 C42 24.33 42 24.66 42 25 C21.21 25.495 21.21 25.495 0 26 C0 17.42 0 8.84 0 0 Z " fill="#468CEF" transform="translate(185,160)"/>
<path d="M0 0 C0.82638376 2.89234315 1 4.88742431 1 8 C0.21625 8.20625 -0.5675 8.4125 -1.375 8.625 C-4.30916286 9.80676612 -4.30916286 9.80676612 -5.3125 13.125 C-5.539375 14.07375 -5.76625 15.0225 -6 16 C-6.721875 16.020625 -7.44375 16.04125 -8.1875 16.0625 C-12.32037516 17.44012505 -13.78717508 20.39356619 -16 24 C-17.32 23.34 -18.64 22.68 -20 22 C-13 15 -13 15 -11.0625 13.125 C-8.62900293 10.6177606 -6.44818788 7.96540856 -4.25 5.25 C-3.45078125 4.26515625 -2.6515625 3.2803125 -1.828125 2.265625 C-1.22484375 1.51796875 -0.6215625 0.7703125 0 0 Z " fill="#959C96" transform="translate(246,224)"/>
<path d="M0 0 C0.66 0.33 1.32 0.66 2 1 C0.62714844 2.33804688 0.62714844 2.33804688 -0.7734375 3.703125 C-1.97422282 4.88514805 -3.17472909 6.06745461 -4.375 7.25 C-4.97828125 7.83652344 -5.5815625 8.42304688 -6.203125 9.02734375 C-7.07324219 9.88779297 -7.07324219 9.88779297 -7.9609375 10.765625 C-8.49509277 11.28930664 -9.02924805 11.81298828 -9.57958984 12.35253906 C-11.10817372 14.12546516 -12.0414787 15.87264893 -13 18 C-14.32 18 -15.64 18 -17 18 C-16.67 19.98 -16.34 21.96 -16 24 C-16.66 23.67 -17.32 23.34 -18 23 C-18 20.36 -18 17.72 -18 15 C-17.34 15 -16.68 15 -16 15 C-16 14.34 -16 13.68 -16 13 C-15.34 13 -14.68 13 -14 13 C-13.95875 12.2575 -13.9175 11.515 -13.875 10.75 C-12.62889614 6.8336736 -10.522028 5.96420792 -7 4 C-5.33859237 3.32033324 -3.67299959 2.65061095 -2 2 C-1.34 1.34 -0.68 0.68 0 0 Z " fill="#BAA09C" transform="translate(156,139)"/>
<path d="M0 0 C6.7685324 -0.10152799 13.30324864 -0.03026944 20 1 C18.02 1.99 18.02 1.99 16 3 C16.66 4.98 17.32 6.96 18 9 C12.55018334 8.65938646 9.28890014 7.2467633 4.796875 4.15625 C2.89463413 2.82741725 2.89463413 2.82741725 0 2 C0 1.34 0 0.68 0 0 Z " fill="#697896" transform="translate(188,187)"/>
<path d="M0 0 C-1.25 1.5 -1.25 1.5 -3 3 C-4.32 3 -5.64 3 -7 3 C-7.33 3.66 -7.66 4.32 -8 5 C-10.93704456 7.0095568 -12.39222485 8 -16 8 C-16 7.34 -16 6.68 -16 6 C-18.64 6.66 -21.28 7.32 -24 8 C-24 7.34 -24 6.68 -24 6 C-26.31 6 -28.62 6 -31 6 C-31 5.67 -31 5.34 -31 5 C-29.49373047 4.72736328 -29.49373047 4.72736328 -27.95703125 4.44921875 C-26.57538801 4.19603627 -25.19388768 3.94207314 -23.8125 3.6875 C-23.09304199 3.55504883 -22.37358398 3.42259766 -21.63232422 3.28613281 C-15.86228665 2.20464837 -10.1684094 0.89374134 -4.4765625 -0.546875 C-2 -1 -2 -1 0 0 Z " fill="#C1BCCD" transform="translate(224,134)"/>
<path d="M0 0 C0.268125 0.639375 0.53625 1.27875 0.8125 1.9375 C1.88667752 4.33131686 1.88667752 4.33131686 5 5 C5.33 7.31 5.66 9.62 6 12 C6.66 12 7.32 12 8 12 C8.33 9.69 8.66 7.38 9 5 C9.66 5 10.32 5 11 5 C11.99 6.485 11.99 6.485 13 8 C13.66 6.68 14.32 5.36 15 4 C16.32 4.66 17.64 5.32 19 6 C17.55450055 7.21018559 16.10759457 8.41874565 14.65234375 9.6171875 C13.1969094 10.83521058 11.78233047 12.10170101 10.375 13.375 C8 15 8 15 5.9921875 14.90234375 C4 14 4 14 2.734375 11.85546875 C2.40953125 10.97503906 2.0846875 10.09460938 1.75 9.1875 C1.41484375 8.31480469 1.0796875 7.44210938 0.734375 6.54296875 C0 4 0 4 0 0 Z " fill="#E4BB1F" transform="translate(105,190)"/>
<path d="M0 0 C0.66 0 1.32 0 2 0 C2.33 4.29 2.66 8.58 3 13 C2.01 13.66 1.02 14.32 0 15 C-0.33 15.99 -0.66 16.98 -1 18 C0.32 18.33 1.64 18.66 3 19 C3.33 21.64 3.66 24.28 4 27 C3.34 27.33 2.68 27.66 2 28 C-1.09212176 21.91643021 -2.56699236 16.81987029 -3 10 C-2.34 10 -1.68 10 -1 10 C-1.01160156 9.36191406 -1.02320313 8.72382813 -1.03515625 8.06640625 C-1.04417969 7.24011719 -1.05320313 6.41382813 -1.0625 5.5625 C-1.07410156 4.73878906 -1.08570313 3.91507813 -1.09765625 3.06640625 C-1 1 -1 1 0 0 Z " fill="#DFD1BB" transform="translate(141,166)"/>
<path d="M0 0 C2.64 0 5.28 0 8 0 C8 0.99 8 1.98 8 3 C10.64 3 13.28 3 16 3 C16 3.66 16 4.32 16 5 C8.08 5.33 0.16 5.66 -8 6 C-8 4.68 -8 3.36 -8 2 C-5.36 2 -2.72 2 0 2 C0 1.34 0 0.68 0 0 Z " fill="#FCF4F3" transform="translate(176,81)"/>
<path d="M0 0 C1.32 0 2.64 0 4 0 C4.33 1.65 4.66 3.3 5 5 C5.99 4.34 6.98 3.68 8 3 C6.63629701 5.99220268 5.05091917 8.29026529 2.875 10.75 C2.06675781 11.67039063 2.06675781 11.67039063 1.2421875 12.609375 C0.62730469 13.29773438 0.62730469 13.29773438 0 14 C-3 12.25 -3 12.25 -6 10 C-6 8.68 -6 7.36 -6 6 C-4.02 6 -2.04 6 0 6 C1.33333333 3 1.33333333 3 0 0 Z " fill="#488DEC" transform="translate(240,218)"/>
<path d="M0 0 C1.65 0 3.3 0 5 0 C5 0.66 5 1.32 5 2 C6.918125 2.185625 6.918125 2.185625 8.875 2.375 C12.75 2.75 12.75 2.75 15 5 C15 5.33 15 5.66 15 6 C17.31 6.66 19.62 7.32 22 8 C18.20944025 10.52703984 17.35184646 9.82110311 13 9 C10.32606599 8.90845992 7.67665818 8.95385072 5 9 C5 7.02 5 5.04 5 3 C4.34 3 3.68 3 3 3 C3 2.34 3 1.68 3 1 C2.01 0.67 1.02 0.34 0 0 Z " fill="#747A74" transform="translate(155,247)"/>
<path d="M0 0 C1.72134334 0.01151671 3.44269923 0.02129433 5.1640625 0.02929688 C6.82292998 0.04271486 8.48178613 0.05763615 10.140625 0.07421875 C10.90119202 0.08160568 11.66175903 0.08899261 12.44537354 0.09660339 C16.96549318 0.17665359 21.28764548 0.58164784 25.75 1.3125 C25.75 1.6425 25.75 1.9725 25.75 2.3125 C24.61570557 2.30726318 23.48141113 2.30202637 22.31274414 2.29663086 C18.06909995 2.27841072 13.82545916 2.26700629 9.58178711 2.25756836 C7.75170305 2.25256681 5.92162293 2.24576344 4.09155273 2.23706055 C1.44774396 2.22481068 -1.19601158 2.21922977 -3.83984375 2.21484375 C-4.64646957 2.20968246 -5.4530954 2.20452118 -6.28416443 2.19920349 C-11.67943409 2.19868113 -16.8962362 2.63655516 -22.25 3.3125 C-22.25 3.9725 -22.25 4.6325 -22.25 5.3125 C-24.89 5.6425 -27.53 5.9725 -30.25 6.3125 C-30.25 5.6525 -30.25 4.9925 -30.25 4.3125 C-20.37403873 -0.62129827 -10.73733451 -0.18466909 0 0 Z " fill="#98828D" transform="translate(187.25,129.6875)"/>
<path d="M0 0 C4.29 0 8.58 0 13 0 C12.34 0.639375 11.68 1.27875 11 1.9375 C7.7697494 5.15849486 4.78012119 8.586669 1.76953125 12.01171875 C0.55340364 13.37818443 -0.70651734 14.70651734 -2 16 C-1.33333333 10.66666667 -0.66666667 5.33333333 0 0 Z " fill="#FCEBEA" transform="translate(120,104)"/>
<path d="M0 0 C0.66 0 1.32 0 2 0 C1.68798326 2.04174058 1.37536431 4.08338913 1.0625 6.125 C0.88847656 7.26195312 0.71445313 8.39890625 0.53515625 9.5703125 C0.04410734 12.71732669 -0.47018719 15.85930783 -1 19 C-1.66 19 -2.32 19 -3 19 C-6.13614991 15.01950204 -6.36152705 11.97099689 -6 7 C-5.5 4.5625 -5.5 4.5625 -5 3 C-4.34 3 -3.68 3 -3 3 C-2.67 3.99 -2.34 4.98 -2 6 C-1.34 4.02 -0.68 2.04 0 0 Z " fill="#EFE3D6" transform="translate(102,149)"/>
<path d="M0 0 C-3.01635451 1.67653193 -5.73461672 2.46032745 -9.125 3.0625 C-12.67791258 3.68273802 -12.67791258 3.68273802 -16 5 C-16 4.34 -16 3.68 -16 3 C-17.85625 2.9690625 -17.85625 2.9690625 -19.75 2.9375 C-20.79414063 2.92009766 -20.79414063 2.92009766 -21.859375 2.90234375 C-24.00210329 2.91908581 -24.00210329 2.91908581 -26 3.5625 C-29.5278355 4.33421401 -32.57939468 2.96917151 -36 2 C-34 0 -34 0 -31.88037109 -0.21118164 C-31.02008301 -0.19434326 -30.15979492 -0.17750488 -29.2734375 -0.16015625 C-27.84837891 -0.1437207 -27.84837891 -0.1437207 -26.39453125 -0.12695312 C-24.89986328 -0.09504883 -24.89986328 -0.09504883 -23.375 -0.0625 C-16.44374407 0.06143636 -6.35916484 -2.38468681 0 0 Z " fill="#697069" transform="translate(204,251)"/>
<path d="M0 0 C0.99 0.99 1.98 1.98 3 3 C1.2675 3.928125 1.2675 3.928125 -0.5 4.875 C-1.1496875 5.22304687 -1.799375 5.57109375 -2.46875 5.9296875 C-10.03496168 9.12898071 -17.20002513 9.33706837 -25.3125 9.3125 C-26.93768555 9.33666992 -26.93768555 9.33666992 -28.59570312 9.36132812 C-30.1512793 9.36229492 -30.1512793 9.36229492 -31.73828125 9.36328125 C-32.67712158 9.36626221 -33.61596191 9.36924316 -34.58325195 9.37231445 C-37.39191104 8.93962377 -38.26328867 8.19071091 -40 6 C-39.03320312 6.23976562 -39.03320312 6.23976562 -38.046875 6.484375 C-28.36552204 8.12275781 -16.93673739 8.38579104 -8 4 C-7.23816406 3.64035156 -6.47632813 3.28070313 -5.69140625 2.91015625 C-3.77574357 1.97722521 -1.88480148 0.99380442 0 0 Z " fill="#72D38D" transform="translate(211,210)"/>
<path d="M0 0 C0.33 0 0.66 0 1 0 C1.45882227 1.97905338 1.91702908 3.95824944 2.375 5.9375 C2.65085938 7.1234375 2.92671875 8.309375 3.2109375 9.53125 C3.84713064 12.32798025 4.43204837 15.12662076 5 17.9375 C5.79865995 21.61945773 7.21455398 24.67257788 9 28 C9 28.66 9 29.32 9 30 C9.66 30.33 10.32 30.66 11 31 C9.02 31.99 9.02 31.99 7 33 C6.2854768 31.0946048 5.57191227 29.18884439 4.86328125 27.28125 C4.31660564 25.83664114 3.75344223 24.39807494 3.16796875 22.96875 C0.11510695 15.38923104 -0.16823694 8.07537295 0 0 Z " fill="#CACACA" transform="translate(47,242)"/>
<path d="M0 0 C2.31 0 4.62 0 7 0 C4.83871824 6.84405889 2.2946755 13.61656621 -1 20 C-1.02689449 17.04160645 -1.04678741 14.08345573 -1.0625 11.125 C-1.07087891 10.28324219 -1.07925781 9.44148437 -1.08789062 8.57421875 C-1.09111328 7.76855469 -1.09433594 6.96289062 -1.09765625 6.1328125 C-1.10289307 5.38918457 -1.10812988 4.64555664 -1.11352539 3.87939453 C-1 2 -1 2 0 0 Z " fill="#FAE9DD" transform="translate(105,128)"/>
<path d="M0 0 C0.763125 0.309375 1.52625 0.61875 2.3125 0.9375 C4.18789677 1.67893593 6.08684652 2.36228217 8 3 C8 3.66 8 4.32 8 5 C11.62197194 6.49140021 15.27566618 7.7874262 19 9 C18.34 11.64 17.68 14.28 17 17 C16.67 17 16.34 17 16 17 C16 15.02 16 13.04 16 11 C13.36 10.67 10.72 10.34 8 10 C8 9.01 8 8.02 8 7 C7.236875 6.9175 6.47375 6.835 5.6875 6.75 C2.45284809 5.84730645 1.64900735 4.86406539 0 2 C0 1.34 0 0.68 0 0 Z " fill="#848C84" transform="translate(136,237)"/>
<path d="M0 0 C1.09950077 0.9184854 2.18977567 1.84894318 3.25 2.8125 C2.59 3.1425 1.93 3.4725 1.25 3.8125 C-1.10981813 2.87671005 -3.44631264 1.87902192 -5.75 0.8125 C-5.75 0.1525 -5.75 -0.5075 -5.75 -1.1875 C-14.72145478 -3.1452539 -23.60719039 -3.75158185 -32.75 -4.1875 C-32.75 -4.5175 -32.75 -4.8475 -32.75 -5.1875 C-21.67975629 -7.51807762 -9.31839409 -6.96410018 0 0 Z " fill="#993433" transform="translate(208.75,124.1875)"/>
<path d="M0 0 C10.15248897 -0.99534206 19.55439306 3.69694448 28 9 C24.86650268 10.04449911 24.01031744 9.93423645 21 9 C21 8.34 21 7.68 21 7 C15.06 5.515 15.06 5.515 9 4 C9 4.33 9 4.66 9 5 C6.69 5 4.38 5 2 5 C2 4.34 2 3.68 2 3 C1.34 2.67 0.68 2.34 0 2 C0 1.34 0 0.68 0 0 Z " fill="#FB695E" transform="translate(200,89)"/>
<path d="M0 0 C3.15283154 -0.05849409 5.59399174 0.08211183 8.60546875 1.0859375 C10.66440496 1.30919564 12.72780528 1.49299509 14.79296875 1.6484375 C15.87964844 1.73222656 16.96632812 1.81601563 18.0859375 1.90234375 C19.33310547 1.99322266 19.33310547 1.99322266 20.60546875 2.0859375 C20.60546875 2.4159375 20.60546875 2.7459375 20.60546875 3.0859375 C13.39665395 4.02496147 6.68366629 4.0153195 -0.546875 3.2421875 C-3.18147098 3.09762805 -4.90072338 3.3534151 -7.39453125 4.0859375 C-8.38453125 4.0859375 -9.37453125 4.0859375 -10.39453125 4.0859375 C-12.39762454 4.40014821 -14.39824461 4.7310421 -16.39453125 5.0859375 C-14.80265215 2.44162007 -14.03150269 1.24646665 -10.9765625 0.4765625 C-10.06261719 0.43015625 -9.14867187 0.38375 -8.20703125 0.3359375 C-7.23378906 0.28179687 -6.26054687 0.22765625 -5.2578125 0.171875 C-3.50506144 0.11926856 -1.75241212 0.06289244 0 0 Z " fill="#B8B1BD" transform="translate(188.39453125,133.9140625)"/>
<path d="M0 0 C1.04655762 -0.01401855 1.04655762 -0.01401855 2.11425781 -0.02832031 C5.81972451 -0.00510534 8.60372565 0.20654346 11.75 2.25 C9.95755859 2.30607422 9.95755859 2.30607422 8.12890625 2.36328125 C-0.22549312 2.68720406 -7.39186487 3.18665919 -15.25 6.25 C-18.3125 6.4375 -18.3125 6.4375 -20.25 6.25 C-15.0215807 -0.28552413 -7.7429795 0.07321142 0 0 Z " fill="#794C51" transform="translate(184.25,119.75)"/>
<path d="M0 0 C-1.3354925 4.00647751 -3.52765887 4.75744636 -7 7 C-7.33 7.66 -7.66 8.32 -8 9 C-8.969375 9.391875 -9.93875 9.78375 -10.9375 10.1875 C-14.35724656 11.77834101 -14.35724656 11.77834101 -15.375 15.6875 C-15.58125 16.780625 -15.7875 17.87375 -16 19 C-17.65 18.67 -19.3 18.34 -21 18 C-21.33 18.99 -21.66 19.98 -22 21 C-22.66 20.67 -23.32 20.34 -24 20 C-19.13664692 14.0936022 -14.12005014 9.02426887 -8.0625 4.375 C-7.2113562 3.71878662 -7.2113562 3.71878662 -6.34301758 3.04931641 C-2.27092241 0 -2.27092241 0 0 0 Z " fill="#F87266" transform="translate(143,98)"/>
<path d="M0 0 C30.5392995 -0.20638953 30.5392995 -0.20638953 42 1 C38.57770265 3.28153156 37.32824397 3.24405977 33.3125 3.1875 C31.82169922 3.17783203 31.82169922 3.17783203 30.30078125 3.16796875 C27.23129455 3.01177002 24.23315748 2.65684964 21.18823242 2.25170898 C17.13852402 1.7858773 13.07034175 1.62819958 9 1.4375 C8.12988281 1.39431641 7.25976562 1.35113281 6.36328125 1.30664062 C4.24231781 1.20175782 2.12117567 1.10049925 0 1 C0 0.67 0 0.34 0 0 Z " fill="#9D8E9F" transform="translate(174,131)"/>
<path d="M0 0 C0.66 0.33 1.32 0.66 2 1 C0.71937515 2.7074998 -0.61767557 4.37373596 -2 6 C-2.66 6 -3.32 6 -4 6 C-4.26941406 6.56976563 -4.53882813 7.13953125 -4.81640625 7.7265625 C-6.04112761 10.07899759 -7.43260962 12.19233457 -8.9375 14.375 C-11.26966516 17.82477976 -13.25658783 21.22260697 -15 25 C-16.00579304 22.35672682 -16.08377402 21.23258313 -15.109375 18.52734375 C-14.66078125 17.67269531 -14.2121875 16.81804687 -13.75 15.9375 C-13.31171875 15.08027344 -12.8734375 14.22304687 -12.421875 13.33984375 C-11.10878376 11.17901503 -9.94971541 9.59855699 -8 8 C-7.34 8 -6.68 8 -6 8 C-5.938125 7.4225 -5.87625 6.845 -5.8125 6.25 C-4.67972699 3.11309013 -2.65802405 1.90832496 0 0 Z " fill="#B73F3B" transform="translate(154,128)"/>
<path d="M0 0 C0.66 0 1.32 0 2 0 C1.47520698 5.25600397 -0.29582761 8.86607443 -2.9375 13.3125 C-3.29779297 13.94478516 -3.65808594 14.57707031 -4.02929688 15.22851562 C-6.72675737 19.86337868 -6.72675737 19.86337868 -9 21 C-9.66796875 19.265625 -9.66796875 19.265625 -10 17 C-8.92578125 14.921875 -8.92578125 14.921875 -7.3125 12.75 C-4.39188237 8.64479619 -2.15161824 4.55150013 0 0 Z M-10 21 C-9.34 21.66 -8.68 22.32 -8 23 C-8.99 22.67 -9.98 22.34 -11 22 C-10.67 21.67 -10.34 21.34 -10 21 Z " fill="#C3C3C3" transform="translate(312,264)"/>
<path d="M0 0 C0.67095703 0.58007812 0.67095703 0.58007812 1.35546875 1.171875 C1.96003906 1.69265625 2.56460938 2.2134375 3.1875 2.75 C3.82300781 3.29914063 4.45851562 3.84828125 5.11328125 4.4140625 C6.65368747 5.70889671 8.25673724 6.92889274 9.875 8.125 C12.12409163 10.10949261 12.68554267 11.06506494 13 14 C10.36 14 7.72 14 5 14 C4.87625 12.3603125 4.87625 12.3603125 4.75 10.6875 C3.90057106 6.51114104 3.32227257 6.25057174 0 4 C0 2.68 0 1.36 0 0 Z " fill="#959D94" transform="translate(124,226)"/>
<path d="M0 0 C1.37562854 1.28965176 2.70766393 2.62689293 4 4 C4 4.66 4 5.32 4 6 C4.66 6 5.32 6 6 6 C7.3671875 7.42578125 7.3671875 7.42578125 8.875 9.3125 C11.06613512 11.97623289 13.21020719 13.96130525 16 16 C16 16.66 16 17.32 16 18 C17.65 17.67 19.3 17.34 21 17 C20.67 18.32 20.34 19.64 20 21 C20.78375 21.28875 21.5675 21.5775 22.375 21.875 C25 23 25 23 27 25 C17.20871404 23.60124486 8.12936877 13.36572007 2 6 C0.68359375 2.66015625 0.68359375 2.66015625 0 0 Z " fill="#398D4E" transform="translate(117,215)"/>
<path d="M0 0 C10.23 0 20.46 0 31 0 C32.00496852 3.01490557 32.10335303 5.04181692 32.0625 8.1875 C32.05347656 9.08855469 32.04445313 9.98960937 32.03515625 10.91796875 C32.02355469 11.60503906 32.01195312 12.29210937 32 13 C31.34 13 30.68 13 30 13 C30.09765625 10.98177083 30.1953125 8.96354167 30.29296875 6.9453125 C30.19628906 6.30335938 30.09960938 5.66140625 30 5 C29.01 4.34 28.02 3.68 27 3 C26.67 3.99 26.34 4.98 26 6 C26 4.68 26 3.36 26 2 C13.13 1.505 13.13 1.505 0 1 C0 0.67 0 0.34 0 0 Z " fill="#5FADFE" transform="translate(232,155)"/>
<path d="M0 0 C0.66 0 1.32 0 2 0 C0.67368636 7.02946229 -2.04627685 13.02414363 -6 19 C-6.99 19.66 -7.98 20.32 -9 21 C-8.67 17.04 -8.34 13.08 -8 9 C-7.34 9.33 -6.68 9.66 -6 10 C-6 9.34 -6 8.68 -6 8 C-5.38125 7.79375 -4.7625 7.5875 -4.125 7.375 C-1.15346355 5.45224112 -0.86975341 3.33405473 0 0 Z " fill="#4984DE" transform="translate(257,200)"/>
<path d="M0 0 C0.66 0 1.32 0 2 0 C2 6.93 2 13.86 2 21 C1.01 21 0.02 21 -1 21 C-3.33732471 13.98802587 -1.6072866 7.00317732 0 0 Z " fill="#BEC2D3" transform="translate(262,187)"/>
<path d="M0 0 C2.52475462 2.52475462 3.04307871 4.73497997 4.125 8.125 C4.47820312 9.22070312 4.83140625 10.31640625 5.1953125 11.4453125 C5.46085937 12.28835937 5.72640625 13.13140625 6 14 C3.69 14.33 1.38 14.66 -1 15 C-1.02685412 12.68756208 -1.04632841 10.3750373 -1.0625 8.0625 C-1.07410156 6.77472656 -1.08570312 5.48695313 -1.09765625 4.16015625 C-1 1 -1 1 0 0 Z " fill="#C9C4BA" transform="translate(105,194)"/>
<path d="M0 0 C0.66 0 1.32 0 2 0 C1.87890625 1.796875 1.87890625 1.796875 1 4 C-1.72265625 5.703125 -1.72265625 5.703125 -5.0625 7.25 C-6.16722656 7.77078125 -7.27195313 8.2915625 -8.41015625 8.828125 C-9.26480469 9.21484375 -10.11945313 9.6015625 -11 10 C-11.33 8.68 -11.66 7.36 -12 6 C-11.34 6 -10.68 6 -10 6 C-10 4.68 -10 3.36 -10 2 C-9.236875 2.20625 -8.47375 2.4125 -7.6875 2.625 C-4.78114056 3.33391203 -4.78114056 3.33391203 -2 1 C-1.34 1.33 -0.68 1.66 0 2 C0 1.34 0 0.68 0 0 Z " fill="#B6CED5" transform="translate(212,206)"/>
<path d="M0 0 C4.74170719 4.58365028 5.16749853 9.74528499 6 16 C4.35 16 2.7 16 1 16 C0.22750855 10.59255982 -0.09752461 5.46137814 0 0 Z " fill="#DFD3C6" transform="translate(99,176)"/>
<path d="M0 0 C0.33 0 0.66 0 1 0 C1.144375 1.093125 1.28875 2.18625 1.4375 3.3125 C1.88288104 6.93122987 1.88288104 6.93122987 3 10 C1.35 10 -0.3 10 -2 10 C-1.690625 10.928125 -1.690625 10.928125 -1.375 11.875 C-1.25125 12.57625 -1.1275 13.2775 -1 14 C-1.66 14.66 -2.32 15.32 -3 16 C-2.6814823 18.10820797 -2.6814823 18.10820797 -2 20 C-2.99 20 -3.98 20 -5 20 C-6.43742402 16.19128414 -5.51565845 13.75451152 -4.1875 10 C-3.83042969 8.96875 -3.47335938 7.9375 -3.10546875 6.875 C-2.18819407 4.48943759 -1.19750105 2.25411962 0 0 Z " fill="#FACE33" transform="translate(110,132)"/>
<path d="M0 0 C3 3 3 3 3.375 6.375 C3.17256076 12.38069759 1.48368606 18.20655919 0 24 C-0.144375 23.38125 -0.28875 22.7625 -0.4375 22.125 C-0.93152225 19.96741678 -0.93152225 19.96741678 -2 18 C-2.039992 16.00039988 -2.04346799 13.99952758 -2 12 C-1.34 12 -0.68 12 0 12 C0 8.04 0 4.08 0 0 Z " fill="#4F8DED" transform="translate(260,176)"/>
<path d="M0 0 C0 0.66 0 1.32 0 2 C0.99 1.67 1.98 1.34 3 1 C4.72795352 0.93197033 6.45835365 0.91504355 8.1875 0.9375 C9.08855469 0.94652344 9.98960937 0.95554687 10.91796875 0.96484375 C11.60503906 0.97644531 12.29210937 0.98804688 13 1 C13 1.33 13 1.66 13 2 C8.43617437 3.14550205 4.04600119 3.14891298 -0.625 3.125 C-1.7696875 3.13080078 -1.7696875 3.13080078 -2.9375 3.13671875 C-6.21351362 3.13097136 -8.87137676 3.04287441 -12 2 C-12 1.34 -12 0.68 -12 0 C-7.66726186 -0.92844389 -4.33273814 -0.92844389 0 0 Z " fill="#8F908D" transform="translate(184,260)"/>
<path d="M0 0 C2.54072193 3.8110829 4.44494743 7.8795565 6.43359375 11.99414062 C7.75697573 14.68918247 8.86120143 16.86120143 11 19 C10.67 19.99 10.34 20.98 10 22 C10 21.34 10 20.68 10 20 C9.34 20 8.68 20 8 20 C8 19.34 8 18.68 8 18 C7.34 18 6.68 18 6 18 C2.90469675 12.78996666 0.21880914 7.97216479 -1 2 C-0.67 1.34 -0.34 0.68 0 0 Z " fill="#56C373" transform="translate(139,185)"/>
<path d="M0 0 C0.33 0 0.66 0 1 0 C1.05851976 4.16660676 1.0937706 8.33310637 1.125 12.5 C1.14175781 13.67304688 1.15851563 14.84609375 1.17578125 16.0546875 C1.21148985 22.41081848 0.90984993 27.92457188 -1 34 C-1.66 33.34 -2.32 32.68 -3 32 C-2.65844727 29.26708984 -2.65844727 29.26708984 -2 26 C-1.79768643 23.9110334 -1.62026291 21.81954055 -1.46484375 19.7265625 C-1.37783203 18.57285156 -1.29082031 17.41914063 -1.20117188 16.23046875 C-1.11416016 15.04066406 -1.02714844 13.85085937 -0.9375 12.625 C-0.84662109 11.41199219 -0.75574219 10.19898438 -0.66210938 8.94921875 C-0.43897899 5.96631787 -0.21835661 2.9832535 0 0 Z " fill="#D3D3D3" transform="translate(316,232)"/>
<path d="M0 0 C0.33 0.66 0.66 1.32 1 2 C1.66 2 2.32 2 3 2 C2.6875 3.875 2.6875 3.875 2 6 C1.01 6.66 0.02 7.32 -1 8 C-1.66 7.67 -2.32 7.34 -3 7 C-3 7.66 -3 8.32 -3 9 C-4.32 8.34 -5.64 7.68 -7 7 C-5.54744301 3.17053157 -3.57104439 1.87949705 0 0 Z " fill="#4B92E9" transform="translate(221,206)"/>
<path d="M0 0 C0.66 0 1.32 0 2 0 C2 0.99 2 1.98 2 3 C1.319375 3.268125 0.63875 3.53625 -0.0625 3.8125 C-2.25895802 4.70042984 -4.42141417 5.67330145 -6.5625 6.6875 C-10.92477876 8.35309735 -10.92477876 8.35309735 -14 7 C-9.64980349 2.86200819 -7.16413289 1.4834614 -1 1 C-0.67 0.67 -0.34 0.34 0 0 Z " fill="#8D928E" transform="translate(214,253)"/>
<path d="M0 0 C3.15084005 3.15084005 3.88397649 4.79344983 5 9 C5 10.32 5 11.64 5 13 C5.66 13.33 6.32 13.66 7 14 C4.69 14 2.38 14 0 14 C0 9.38 0 4.76 0 0 Z " fill="#B4B9B3" transform="translate(112,210)"/>
<path d="M0 0 C0 0.66 0 1.32 0 2 C-0.99 2.495 -0.99 2.495 -2 3 C-2.33 3.99 -2.66 4.98 -3 6 C-3.99 6.639375 -4.98 7.27875 -6 7.9375 C-9.11164048 9.66243964 -9.11164048 9.66243964 -9.875 12.25 C-9.91625 12.8275 -9.9575 13.405 -10 14 C-10.66 14 -11.32 14 -12 14 C-12 14.66 -12 15.32 -12 16 C-12.66 15.67 -13.32 15.34 -14 15 C-6.47413793 0 -6.47413793 0 0 0 Z " fill="#B2817C" transform="translate(152,138)"/>
<path d="M0 0 C1.07765625 0.01804687 2.1553125 0.03609375 3.265625 0.0546875 C4.49539062 0.08949219 4.49539062 0.08949219 5.75 0.125 C2.79433403 1.63704208 -0.19134439 3.02096402 -3.25 4.3125 C-4.095625 4.67730469 -4.94125 5.04210937 -5.8125 5.41796875 C-8.44995359 6.18299936 -9.70517596 6.04985503 -12.25 5.125 C-8.88604262 0.07906393 -5.88244035 -0.12787914 0 0 Z " fill="#FBEEE9" transform="translate(156.25,88.875)"/>
<path d="M0 0 C1.89611434 0.14213297 3.79188394 0.28886907 5.6875 0.4375 C6.74324219 0.51871094 7.79898438 0.59992188 8.88671875 0.68359375 C11.65086297 0.96451681 14.28945741 1.40156852 17 2 C15.03681826 5.53372712 12.95929119 8.24479785 10 11 C9.67 9.68 9.34 8.36 9 7 C9.66 6.67 10.32 6.34 11 6 C9.35820641 2.87544942 9.35820641 2.87544942 6.8359375 2.26953125 C6.02382812 2.11871094 5.21171875 1.96789062 4.375 1.8125 C3.14910156 1.57466797 3.14910156 1.57466797 1.8984375 1.33203125 C0.95871094 1.16767578 0.95871094 1.16767578 0 1 C0 0.67 0 0.34 0 0 Z " fill="#98A9D1" transform="translate(204,198)"/>
<path d="M0 0 C3.63 0 7.26 0 11 0 C10.34 2.64 9.68 5.28 9 8 C2.25 4.5 2.25 4.5 0 0 Z " fill="#FCEBEA" transform="translate(227,96)"/>
<path d="M0 0 C0.89211182 0.00410889 1.78422363 0.00821777 2.70336914 0.01245117 C3.6759668 0.01438477 4.64856445 0.01631836 5.65063477 0.01831055 C6.66963867 0.03055664 7.68864258 0.04280273 8.73852539 0.05541992 C10.26123047 0.05638672 10.26123047 0.05638672 11.81469727 0.05737305 C19.37956102 0.1024318 19.37956102 0.1024318 22.80102539 1.24291992 C22.80102539 1.90291992 22.80102539 2.56291992 22.80102539 3.24291992 C21.72751831 2.99844116 21.72751831 2.99844116 20.63232422 2.74902344 C17.84622342 2.25099921 15.32640331 2.12873643 12.50024414 2.14526367 C11.5237793 2.14848633 10.54731445 2.15170898 9.54125977 2.1550293 C8.03015625 2.16759766 8.03015625 2.16759766 6.48852539 2.18041992 C5.46178711 2.18493164 4.43504883 2.18944336 3.37719727 2.1940918 C0.85174657 2.20583808 -1.67358366 2.22226428 -4.19897461 2.24291992 C-2.19897461 0.24291992 -2.19897461 0.24291992 0 0 Z " fill="#7A5C67" transform="translate(180.198974609375,121.757080078125)"/>
<path d="M0 0 C0.89138672 0.18175781 0.89138672 0.18175781 1.80078125 0.3671875 C8.18678908 1.65829328 14.58647035 2.85385592 21 4 C19 6 19 6 17.15234375 6.08203125 C11.58646566 5.40470217 6.11637785 4.38688163 1 2 C0.67 1.34 0.34 0.68 0 0 Z " fill="#8E8E8E" transform="translate(83,297)"/>
<path d="M0 0 C2 3 2 3 3 5 C4.65051288 6.11634152 4.65051288 6.11634152 6.5625 7.125 C7.696875 7.74375 8.83125 8.3625 10 9 C10 13 10 13 9 15 C8.60167969 14.52949219 8.20335937 14.05898437 7.79296875 13.57421875 C7.26316406 12.95160156 6.73335937 12.32898438 6.1875 11.6875 C5.66542969 11.07261719 5.14335937 10.45773438 4.60546875 9.82421875 C3.03808498 7.99396525 3.03808498 7.99396525 1.34765625 6.40234375 C-0.31404282 4.67321341 -0.68596008 3.35529942 -1 1 C-0.67 0.67 -0.34 0.34 0 0 Z " fill="#BCDCC1" transform="translate(145,193)"/>
<path d="M0 0 C0 0.66 0 1.32 0 2 C-0.639375 2.12375 -1.27875 2.2475 -1.9375 2.375 C-2.618125 2.58125 -3.29875 2.7875 -4 3 C-4.33 3.66 -4.66 4.32 -5 5 C-8.60963407 6.39463134 -12.19331304 7.32823171 -16 8 C-10.95142965 2.66293992 -7.58466629 -0.52916276 0 0 Z " fill="#866162" transform="translate(168,126)"/>
<path d="M0 0 C0 1.98 0 3.96 0 6 C-3.5875213 4.66749209 -6.8364623 3.169283 -10 1 C-10 0.34 -10 -0.32 -10 -1 C-5.94568308 -2.15837626 -3.78187881 -1.83691257 0 0 Z " fill="#FBEEEB" transform="translate(224,90)"/>
<path d="M0 0 C1.916588 -0.02712153 3.8332873 -0.04645097 5.75 -0.0625 C7.35101563 -0.07990234 7.35101563 -0.07990234 8.984375 -0.09765625 C11.53368501 -0.01510087 13.57933591 0.25382442 16 1 C15.67 2.32 15.34 3.64 15 5 C9.88634986 3.9318153 4.92772031 2.76892524 0 1 C0 0.67 0 0.34 0 0 Z " fill="#8092BC" transform="translate(206,196)"/>
<path d="M0 0 C0.66 0.33 1.32 0.66 2 1 C1.57847656 1.48210937 1.15695313 1.96421875 0.72265625 2.4609375 C0.17480469 3.09257812 -0.37304688 3.72421875 -0.9375 4.375 C-1.48277344 5.00148437 -2.02804688 5.62796875 -2.58984375 6.2734375 C-4.06958624 7.95632334 -4.06958624 7.95632334 -5 10 C-6.32 10 -7.64 10 -9 10 C-8.67 11.98 -8.34 13.96 -8 16 C-8.66 15.67 -9.32 15.34 -10 15 C-10 12.36 -10 9.72 -10 7 C-8.35 6.67 -6.7 6.34 -5 6 C-5 5.34 -5 4.68 -5 4 C-3.37373596 2.61767557 -1.7074998 1.28062485 0 0 Z " fill="#C9B09D" transform="translate(148,147)"/>
<path d="M0 0 C1.98 0 3.96 0 6 0 C6.3227506 4.62609198 5.84450614 7.28026121 3 11 C2.34 11 1.68 11 1 11 C0.90021879 7.50765756 1.22157062 4.40562852 2 1 C1.34 0.67 0.68 0.34 0 0 Z " fill="#324D9C" transform="translate(222,186)"/>
<path d="M0 0 C1.98 0 3.96 0 6 0 C6.33 0.66 6.66 1.32 7 2 C8.31647119 2.69937532 9.65022151 3.36729133 11 4 C11.33 4.33 11.66 4.66 12 5 C12.33 5 12.66 5 13 5 C13 6.65 13 8.3 13 10 C3.40546697 3.84965831 3.40546697 3.84965831 0 0 Z " fill="#4791E3" transform="translate(218,215)"/>
<path d="M0 0 C2.90802461 2.21928194 4.95312762 3.92969143 7 7 C8.96752828 8.06246527 10.96587579 9.07137808 13 10 C13 10.66 13 11.32 13 12 C13.66 12.33 14.32 12.66 15 13 C9.54094483 12.61006749 6.88149502 10.79523957 3 7 C0 2.7 0 2.7 0 0 Z " fill="#68CD83" transform="translate(147,200)"/>
<path d="M0 0 C-1.29089743 1.4590143 -2.58274439 2.91718851 -3.875 4.375 C-4.59429687 5.18710938 -5.31359375 5.99921875 -6.0546875 6.8359375 C-7.33295938 8.25795079 -8.64794586 9.64794586 -10 11 C-9.25 3.375 -9.25 3.375 -7 0 C-3.86650268 -1.04449911 -3.01031744 -0.93423645 0 0 Z " fill="#FDE4E0" transform="translate(128,109)"/>
<path d="M0 0 C-1.4638611 4.39158329 -3.97831338 4.87947433 -8 7 C-9.03864166 3.88407501 -9.09036928 2.9737344 -8 0 C-5.13822943 -1.43088528 -3.06624227 -0.59991697 0 0 Z " fill="#FCEAE9" transform="translate(141,97)"/>
<path d="M0 0 C0.75410156 0.00451172 1.50820312 0.00902344 2.28515625 0.01367188 C4.14847127 0.02546501 6.01174555 0.04340058 7.875 0.0625 C7.875 0.3925 7.875 0.7225 7.875 1.0625 C0.46069409 2.89967315 -6.50185526 3.29826736 -14.125 3.0625 C-9.10134823 0.55067411 -5.64503486 -0.06337258 0 0 Z " fill="#FB7568" transform="translate(176.125,86.9375)"/>
<path d="M0 0 C0.82638376 2.89234315 1 4.88742431 1 8 C0.236875 8.28875 -0.52625 8.5775 -1.3125 8.875 C-4.15029308 9.96269013 -4.15029308 9.96269013 -7 12 C-5.63855967 6.80177328 -3.53269829 3.90456127 0 0 Z " fill="#98A0B0" transform="translate(246,224)"/>
<path d="M0 0 C5.94 0.33 11.88 0.66 18 1 C16 3 16 3 13.06640625 3.23046875 C11.91011719 3.21628906 10.75382813 3.20210937 9.5625 3.1875 C8.40878906 3.18105469 7.25507813 3.17460937 6.06640625 3.16796875 C3 3 3 3 0 2 C0 1.34 0 0.68 0 0 Z " fill="#AAA0B4" transform="translate(194,133)"/>
<path d="M0 0 C0.66 0.99 1.32 1.98 2 3 C1.3125 5.625 1.3125 5.625 0 8 C-0.99 8.33 -1.98 8.66 -3 9 C-3.33 10.98 -3.66 12.96 -4 15 C-4.66 14.67 -5.32 14.34 -6 14 C-5.05944297 8.31953056 -4.13782924 4.27575688 0 0 Z " fill="#A3AABD" transform="translate(252,216)"/>
<path d="M0 0 C1.32 0 2.64 0 4 0 C4.33 1.65 4.66 3.3 5 5 C5.99 4.34 6.98 3.68 8 3 C6.63629701 5.99220268 5.05091917 8.29026529 2.875 10.75 C2.06675781 11.67039063 2.06675781 11.67039063 1.2421875 12.609375 C0.83226562 13.06828125 0.42234375 13.5271875 0 14 C-0.66 13.34 -1.32 12.68 -2 12 C-1.29875 11.505 -0.5975 11.01 0.125 10.5 C2.25102154 8.24487172 2.25102154 8.24487172 1.8203125 5.953125 C1.30029018 3.94427165 0.65619471 1.96858413 0 0 Z " fill="#467ED6" transform="translate(240,218)"/>
<path d="M0 0 C-0.58007812 0.25394531 -1.16015625 0.50789063 -1.7578125 0.76953125 C-2.53898437 1.11371094 -3.32015625 1.45789063 -4.125 1.8125 C-4.94613281 2.1734375 -5.76726562 2.534375 -6.61328125 2.90625 C-8.55189731 3.79465016 -10.4417525 4.78888345 -12.3125 5.8125 C-15 7 -15 7 -17.375 6.6875 C-17.91125 6.460625 -18.4475 6.23375 -19 6 C-5.89088652 -1.9200894 -5.89088652 -1.9200894 0 0 Z " fill="#FC746A" transform="translate(162,91)"/>
<path d="M0 0 C0.99 0.99 1.98 1.98 3 3 C-1.64203897 5.53309233 -5.65155992 7.46515599 -11 8 C-10 5 -10 5 -7.71484375 3.61328125 C-6.79832031 3.18402344 -5.88179687 2.75476563 -4.9375 2.3125 C-4.01839844 1.87550781 -3.09929687 1.43851563 -2.15234375 0.98828125 C-1.08693359 0.49908203 -1.08693359 0.49908203 0 0 Z " fill="#63CC81" transform="translate(211,210)"/>
<path d="M0 0 C0.33 0 0.66 0 1 0 C1.66 5.94 2.32 11.88 3 18 C1.68 18 0.36 18 -1 18 C-0.505 9.09 -0.505 9.09 0 0 Z " fill="#DFDAD3" transform="translate(97,168)"/>
<path d="M0 0 C0.99 0.33 1.98 0.66 3 1 C-1.06242632 5.82413126 -3.94858422 7.03945781 -10 8 C-12.24609375 7.5390625 -12.24609375 7.5390625 -14 7 C-8.70769231 3.92307692 -8.70769231 3.92307692 -5.125 4.3125 C-4.42375 4.539375 -3.7225 4.76625 -3 5 C-2.87625 4.360625 -2.7525 3.72125 -2.625 3.0625 C-2.41875 2.381875 -2.2125 1.70125 -2 1 C-1.34 0.67 -0.68 0.34 0 0 Z " fill="#BBADC0" transform="translate(224,128)"/>
<path d="M0 0 C10.55808656 0.77904328 10.55808656 0.77904328 15 3 C14.01 3.495 14.01 3.495 13 4 C13 4.66 13 5.32 13 6 C12.0925 5.690625 11.185 5.38125 10.25 5.0625 C7.20541416 3.99622853 7.20541416 3.99622853 4.8125 3.5625 C2.56273803 2.86429801 1.59889729 1.68897601 0 0 Z " fill="#A5B6C0" transform="translate(192,196)"/>
<path d="M0 0 C1.98 0 3.96 0 6 0 C6.66 1.32 7.32 2.64 8 4 C7.34 4 6.68 4 6 4 C6 4.66 6 5.32 6 6 C4.35 5.67 2.7 5.34 1 5 C0.67 3.35 0.34 1.7 0 0 Z " fill="#FDF3F4" transform="translate(194,81)"/>
<path d="M0 0 C3 2 3 2 4 5 C6.00016466 6.20882096 6.00016466 6.20882096 8 7 C8 8.32 8 9.64 8 11 C7.01 11 6.02 11 5 11 C5 9.68 5 8.36 5 7 C3.35 6.67 1.7 6.34 0 6 C0 4.02 0 2.04 0 0 Z " fill="#ABB7BC" transform="translate(184,185)"/>
<path d="M0 0 C4.22510673 1.50896669 5.71822849 4.27310654 8 8 C8.99 9.485 8.99 9.485 10 11 C6 11 6 11 4.296875 9.35546875 C3.78640625 8.64003906 3.2759375 7.92460937 2.75 7.1875 C1.96882813 6.12595703 1.96882813 6.12595703 1.171875 5.04296875 C0 3 0 3 0 0 Z " fill="#BDBDBD" transform="translate(55,274)"/>
<path d="M0 0 C0.99 0.33 1.98 0.66 3 1 C-10.8630137 11 -10.8630137 11 -15 11 C-15 10.01 -15 9.02 -15 8 C-14.12988281 7.76216797 -14.12988281 7.76216797 -13.2421875 7.51953125 C-9.11765709 6.28761705 -5.84751115 5.17141794 -2.625 2.25 C-1.75875 1.5075 -0.8925 0.765 0 0 Z " fill="#348549" transform="translate(235,233)"/>
<path d="M0 0 C0.66 0.33 1.32 0.66 2 1 C-0.03631594 4.60271282 -1.22782934 6.65331113 -5.0625 8.375 C-8 9 -8 9 -11 9 C-7.37 6.03 -3.74 3.06 0 0 Z " fill="#B7B7B7" transform="translate(302,282)"/>
<path d="M0 0 C3.63 0 7.26 0 11 0 C11.33 1.65 11.66 3.3 12 5 C6.71201818 4.58525633 3.88309282 3.64775386 0 0 Z " fill="#7A8CA7" transform="translate(194,191)"/>
<path d="M0 0 C0.66 0 1.32 0 2 0 C2 2.31 2 4.62 2 7 C-0.64 6.67 -3.28 6.34 -6 6 C-4 4 -2 2 0 0 Z " fill="#44B95B" transform="translate(137,185)"/>
<path d="M0 0 C2.31 0 4.62 0 7 0 C7 0.66 7 1.32 7 2 C9.475 2.99 9.475 2.99 12 4 C12 4.33 12 4.66 12 5 C7.428721 4.45144652 3.32564205 3.58255197 -1 2 C-0.67 1.34 -0.34 0.68 0 0 Z " fill="#846C7D" transform="translate(193,125)"/>
<path d="M0 0 C6.6 0 13.2 0 20 0 C19.01 1.485 19.01 1.485 18 3 C17.01 3 16.02 3 15 3 C15 2.34 15 1.68 15 1 C12.36 1.66 9.72 2.32 7 3 C7 2.34 7 1.68 7 1 C4.69 1 2.38 1 0 1 C0 0.67 0 0.34 0 0 Z " fill="#CAC8D9" transform="translate(193,139)"/>
<path d="M0 0 C0.33 0 0.66 0 1 0 C1.53067341 2.10170656 2.04922857 4.20647598 2.5625 6.3125 C2.85253906 7.48425781 3.14257812 8.65601563 3.44140625 9.86328125 C4 13 4 13 3 16 C2.34 16.33 1.68 16.66 1 17 C0.1679418 11.27959989 -0.12036664 5.77759884 0 0 Z " fill="#D3D3D3" transform="translate(47,242)"/>
<path d="M0 0 C2.375 -0.125 2.375 -0.125 5 0 C7 2 7 2 7.1953125 4.3828125 C7.17210937 5.28773438 7.14890625 6.19265625 7.125 7.125 C7.10695313 8.03507813 7.08890625 8.94515625 7.0703125 9.8828125 C7.04710937 10.58148438 7.02390625 11.28015625 7 12 C6.34 12 5.68 12 5 12 C5.09765625 9.98177083 5.1953125 7.96354167 5.29296875 5.9453125 C5.19628906 5.30335938 5.09960938 4.66140625 5 4 C4.01 3.34 3.02 2.68 2 2 C1.67 2.99 1.34 3.98 1 5 C0.67 3.35 0.34 1.7 0 0 Z " fill="#60A1F9" transform="translate(257,156)"/>
<path d="M0 0 C0.66 0.33 1.32 0.66 2 1 C2 4.3 2 7.6 2 11 C0.68 10.67 -0.64 10.34 -2 10 C-1.34 6.7 -0.68 3.4 0 0 Z " fill="#DCCFD4" transform="translate(238,109)"/>
<path d="M0 0 C0.66 0.33 1.32 0.66 2 1 C0.6875 3.0625 0.6875 3.0625 -2 5 C-5.72702755 5.05898893 -9.32357303 4.58315738 -13 4 C-13 3.67 -13 3.34 -13 3 C-12.22914063 2.86722656 -11.45828125 2.73445313 -10.6640625 2.59765625 C-9.66117187 2.42105469 -8.65828125 2.24445313 -7.625 2.0625 C-6.62726563 1.88847656 -5.62953125 1.71445312 -4.6015625 1.53515625 C-2.03090344 1.12287938 -2.03090344 1.12287938 0 0 Z " fill="#9E9E9E" transform="translate(282,297)"/>
<path d="M0 0 C-4.48074195 3.36055646 -7.60550707 3.27429625 -13 3 C-13 2.34 -13 1.68 -13 1 C-11.58622218 0.63447197 -10.16879424 0.28304505 -8.75 -0.0625 C-7.96109375 -0.25972656 -7.1721875 -0.45695313 -6.359375 -0.66015625 C-3.89605178 -1.01497267 -2.34395868 -0.76877544 0 0 Z " fill="#7B807C" transform="translate(210,253)"/>
<path d="M0 0 C0 0.66 0 1.32 0 2 C-1.6396875 2.6496875 -1.6396875 2.6496875 -3.3125 3.3125 C-6.14431427 4.51473906 -7.91710484 5.70881532 -10 8 C-10.99 8.33 -11.98 8.66 -13 9 C-12.5625 6.75 -12.5625 6.75 -11 4 C-7.6619213 2.02491752 -3.93787638 0 0 0 Z " fill="#797F77" transform="translate(224,243)"/>
<path d="M0 0 C1.32 0.33 2.64 0.66 4 1 C4.33 3.64 4.66 6.28 5 9 C4.01 9.495 4.01 9.495 3 10 C0.96564469 6.27034861 0 4.33094958 0 0 Z " fill="#C4D7BF" transform="translate(140,184)"/>
<path d="M0 0 C1.63116406 3.26232811 1.01138485 6.61085606 0 10 C-2.5625 12.5 -2.5625 12.5 -5 14 C-4.125 8.25 -4.125 8.25 -3 6 C-2.34 6 -1.68 6 -1 6 C-1.020625 5.195625 -1.04125 4.39125 -1.0625 3.5625 C-1 1 -1 1 0 0 Z " fill="#CAB6BE" transform="translate(237,110)"/>
<path d="M0 0 C-0.75 1.9375 -0.75 1.9375 -2 4 C-3.32594105 4.36162029 -4.65938457 4.69728039 -6 5 C-6.33 5.99 -6.66 6.98 -7 8 C-7.99 7.67 -8.98 7.34 -10 7 C-4.4893617 0 -4.4893617 0 0 0 Z " fill="#64A6F5" transform="translate(222,204)"/>
<path d="M0 0 C0.66 0 1.32 0 2 0 C2.125 7.625 2.125 7.625 1 11 C0.01 11.33 -0.98 11.66 -2 12 C-1.34 8.04 -0.68 4.08 0 0 Z " fill="#B2BEDA" transform="translate(262,187)"/>
<path d="M0 0 C5.94 1.485 5.94 1.485 12 3 C11.01 4.485 11.01 4.485 10 6 C6.20696275 4.99806563 3.28463659 4.18975773 0 2 C0 1.34 0 0.68 0 0 Z " fill="#A5A5A5" transform="translate(74,293)"/>
<path d="M0 0 C1.65 0.33 3.3 0.66 5 1 C4.3125 3.375 4.3125 3.375 3 6 C0.375 7.3125 0.375 7.3125 -2 8 C-1.33333333 5.33333333 -0.66666667 2.66666667 0 0 Z " fill="#C5DBD2" transform="translate(202,208)"/>
<path d="M0 0 C2.6855594 2.6855594 3.06049974 5.37621328 4 9 C2.68 9.33 1.36 9.66 0 10 C-0.19412181 8.52168779 -0.38012131 7.04230684 -0.5625 5.5625 C-0.66691406 4.73878906 -0.77132812 3.91507813 -0.87890625 3.06640625 C-0.91886719 2.38449219 -0.95882812 1.70257813 -1 1 C-0.67 0.67 -0.34 0.34 0 0 Z " fill="#D3C3AF" transform="translate(105,194)"/>
<path d="M0 0 C1 2 1 2 0.25 4.75 C-0.98251685 7.95454382 -2.40772559 10.9602034 -4 14 C-5.06528748 11.26980214 -5.07998186 10.20701188 -4.00390625 7.421875 C-3.52824219 6.54015625 -3.05257812 5.6584375 -2.5625 4.75 C-2.08941406 3.85796875 -1.61632812 2.9659375 -1.12890625 2.046875 C-0.75636719 1.37140625 -0.38382813 0.6959375 0 0 Z " fill="#CE473F" transform="translate(143,139)"/>
<path d="M0 0 C5.54050113 0.56825653 10.03715966 2.62886517 15 5 C12.51053693 5.89234179 11.27333365 6.08442558 8.7109375 5.29296875 C7.94007813 4.92816406 7.16921875 4.56335938 6.375 4.1875 C5.59898437 3.83042969 4.82296875 3.47335938 4.0234375 3.10546875 C2 2 2 2 0 0 Z " fill="#377C47" transform="translate(144,241)"/>
<path d="M0 0 C0.99 0.33 1.98 0.66 3 1 C2.34 1 1.68 1 1 1 C3.12780579 3.34058637 5.11562221 4.70700306 8 6 C6.375 6.6875 6.375 6.6875 4 7 C0.75 5.5625 0.75 5.5625 -2 4 C-2 3.01 -2 2.02 -2 1 C-1.34 0.67 -0.68 0.34 0 0 Z " fill="#2FA24D" transform="translate(156,241)"/>
<path d="M0 0 C0 1.65 0 3.3 0 5 C-1.65 4.67 -3.3 4.34 -5 4 C-5.33 4.99 -5.66 5.98 -6 7 C-6.66 6.67 -7.32 6.34 -8 6 C-3.375 0 -3.375 0 0 0 Z " fill="#F9675D" transform="translate(127,112)"/>
<path d="M0 0 C3.0916909 2.52956528 3.90931332 5.22454612 5 9 C3.68 9 2.36 9 1 9 C0.45627049 5.94152152 0 3.11227195 0 0 Z " fill="#AAB5A9" transform="translate(112,210)"/>
<path d="M0 0 C0.66 0.33 1.32 0.66 2 1 C-0.51407619 5.28324091 -2.12314139 7.64531705 -7 9 C-6.1875 6.5625 -6.1875 6.5625 -5 4 C-4.01 3.67 -3.02 3.34 -2 3 C-1.34 2.01 -0.68 1.02 0 0 Z " fill="#5E97F0" transform="translate(225,197)"/>
<path d="M0 0 C2.31 1.65 4.62 3.3 7 5 C6.34 5.66 5.68 6.32 5 7 C1.46428571 6.46428571 1.46428571 6.46428571 0 5 C-0.04063832 3.33382885 -0.042721 1.66611905 0 0 Z " fill="#F9C221" transform="translate(111,132)"/>
<path d="M0 0 C1.45606519 4.52092968 0.27032841 7.51648796 -1 12 C-1.66 11.34 -2.32 10.68 -3 10 C-2.67342446 6.24438133 -1.8830622 3.26397448 0 0 Z " fill="#CCCCCC" transform="translate(316,254)"/>
<path d="M0 0 C0.33 0.66 0.66 1.32 1 2 C1.66 2.33 2.32 2.66 3 3 C2.01 3.495 2.01 3.495 1 4 C0.67 4.99 0.34 5.98 0 7 C-1.65 6.67 -3.3 6.34 -5 6 C-4.34 5.67 -3.68 5.34 -3 5 C-2.30062468 3.68352881 -1.63270867 2.34977849 -1 1 C-0.67 0.67 -0.34 0.34 0 0 Z " fill="#B394A3" transform="translate(221,126)"/>
<path d="M0 0 C0.33 0.66 0.66 1.32 1 2 C0.0625 4.125 0.0625 4.125 -1 6 C-1.99 6 -2.98 6 -4 6 C-4 6.99 -4 7.98 -4 9 C-4.99 8.67 -5.98 8.34 -7 8 C-6.02133662 6.85373678 -5.04205413 5.70800212 -4.0625 4.5625 C-3.51722656 3.92441406 -2.97195312 3.28632812 -2.41015625 2.62890625 C-1.63204305 1.73008851 -0.84063472 0.84063472 0 0 Z " fill="#B48B90" transform="translate(229,118)"/>
<path d="M0 0 C0 0.66 0 1.32 0 2 C-8.57142857 2.28571429 -8.57142857 2.28571429 -12 0 C-7.66726186 -0.92844389 -4.33273814 -0.92844389 0 0 Z " fill="#878986" transform="translate(184,260)"/>
<path d="M0 0 C-7.28571429 3.42857143 -7.28571429 3.42857143 -12 3 C-11.34 2.67 -10.68 2.34 -10 2 C-10 1.34 -10 0.68 -10 0 C-3.375 -1.125 -3.375 -1.125 0 0 Z " fill="#308345" transform="translate(220,245)"/>
<path d="M0 0 C0.66 0.33 1.32 0.66 2 1 C-0.85276137 3.93200474 -3.65079784 6.64315404 -7 9 C-6.82374165 6.62051228 -6.30280227 5.29774151 -4.59765625 3.62109375 C-3.09350908 2.37884514 -1.54870149 1.18623944 0 0 Z " fill="#8A928B" transform="translate(236,234)"/>
<path d="M0 0 C2.56616632 3.84924948 2.55097676 6.4349304 3 11 C2.01 11 1.02 11 0 11 C-1.37432457 7.18243176 -0.67975039 3.92744671 0 0 Z " fill="#DECAAE" transform="translate(102,181)"/>
<path d="M0 0 C4.31392226 0.4793247 6.16569547 1.7457985 9 5 C7.68428397 4.7452486 6.37239624 4.47065859 5.0625 4.1875 C4.33160156 4.03667969 3.60070312 3.88585937 2.84765625 3.73046875 C2.23792969 3.48941406 1.62820312 3.24835938 1 3 C0.67 2.01 0.34 1.02 0 0 Z " fill="#903B3F" transform="translate(203,123)"/>
<path d="M0 0 C4.95 0.99 4.95 0.99 10 2 C9.67 2.66 9.34 3.32 9 4 C5.625 3.6875 5.625 3.6875 2 3 C1.34 2.01 0.68 1.02 0 0 Z " fill="#949494" transform="translate(83,297)"/>
<path d="M0 0 C2.97 0.495 2.97 0.495 6 1 C4.35 2.65 2.7 4.3 1 6 C0.34 5.34 -0.32 4.68 -1 4 C-0.625 1.875 -0.625 1.875 0 0 Z " fill="#E4C122" transform="translate(130,185)"/>
<path d="M0 0 C3.91402949 1.26941497 5.79072873 2.51167694 8 6 C7.01 6.33 6.02 6.66 5 7 C5 6.34 5 5.68 5 5 C3.68 5.33 2.36 5.66 1 6 C0.67 4.02 0.34 2.04 0 0 Z " fill="#FABD24" transform="translate(123,142)"/>
<path d="M0 0 C0.9075 0.103125 1.815 0.20625 2.75 0.3125 C0.08333333 2.3125 -2.58333333 4.3125 -5.25 6.3125 C-5.91 5.9825 -6.57 5.6525 -7.25 5.3125 C-4.05 0.38942308 -4.05 0.38942308 0 0 Z " fill="#943937" transform="translate(161.25,124.6875)"/>
<path d="M0 0 C3.96 0 7.92 0 12 0 C12 0.33 12 0.66 12 1 C8.37 1.66 4.74 2.32 1 3 C0.67 2.01 0.34 1.02 0 0 Z " fill="#B8B8B8" transform="translate(124,320)"/>
<path d="M0 0 C0.82638376 2.89234315 1 4.88742431 1 8 C0.01 8 -0.98 8 -2 8 C-2.6875 6.25 -2.6875 6.25 -3 4 C-1.5625 1.75 -1.5625 1.75 0 0 Z " fill="#9A9FA0" transform="translate(239,232)"/>
<path d="M0 0 C0.66 0.33 1.32 0.66 2 1 C2.40729228 3.32156597 2.74438677 5.6568787 3 8 C1.35 7.67 -0.3 7.34 -2 7 C-1.67 6.401875 -1.34 5.80375 -1 5.1875 C0.20787988 2.94613529 0.20787988 2.94613529 0 0 Z " fill="#B4B6C2" transform="translate(253,216)"/>
<path d="M0 0 C0.99 0 1.98 0 3 0 C1.25 7.75 1.25 7.75 -1 10 C-1.09978121 6.50765756 -0.77842938 3.40562852 0 0 Z " fill="#4E5991" transform="translate(224,187)"/>
<path d="M0 0 C2.97 0.495 2.97 0.495 6 1 C6 1.66 6 2.32 6 3 C7.98 3 9.96 3 12 3 C12 3.33 12 3.66 12 4 C7.45194365 4.17835515 4.1205746 3.99785435 0 2 C0 1.34 0 0.68 0 0 Z " fill="#758697" transform="translate(188,187)"/>
<path d="M0 0 C6.75 1.625 6.75 1.625 9 5 C8.236875 4.835 7.47375 4.67 6.6875 4.5 C3.96403764 3.90854604 3.96403764 3.90854604 1 4 C0.67 2.68 0.34 1.36 0 0 Z " fill="#F66556" transform="translate(224,98)"/>
<path d="M0 0 C7.42857143 -0.14285714 7.42857143 -0.14285714 11 1 C10.67 2.32 10.34 3.64 10 5 C9.34 4.67 8.68 4.34 8 4 C8 3.34 8 2.68 8 2 C5.36 1.67 2.72 1.34 0 1 C0 0.67 0 0.34 0 0 Z " fill="#7183B3" transform="translate(211,196)"/>
<path d="M0 0 C1.65 0.99 3.3 1.98 5 3 C4.34 3.66 3.68 4.32 3 5 C0.9375 4.75 0.9375 4.75 -1 4 C-1.33 3.34 -1.66 2.68 -2 2 C-1.34 2 -0.68 2 0 2 C0 1.34 0 0.68 0 0 Z " fill="#FAC124" transform="translate(118,138)"/>
<path d="M0 0 C0.33 1.32 0.66 2.64 1 4 C0.34 4 -0.32 4 -1 4 C-1.33 4.99 -1.66 5.98 -2 7 C-2.99 6.67 -3.98 6.34 -5 6 C-3.35 4.02 -1.7 2.04 0 0 Z " fill="#BE9698" transform="translate(235,112)"/>
<path d="M0 0 C0.66 0 1.32 0 2 0 C0.50902342 3.7952131 -1.75700849 5.61042731 -5 8 C-5 5 -5 5 -3.625 3.3125 C-2 2 -2 2 0 2 C0 1.34 0 0.68 0 0 Z " fill="#DC443D" transform="translate(236,108)"/>
<path d="M0 0 C0 0.66 0 1.32 0 2 C-4.15267176 5.11450382 -4.15267176 5.11450382 -7.3125 4.6875 C-7.869375 4.460625 -8.42625 4.23375 -9 4 C-2.25 0 -2.25 0 0 0 Z " fill="#FA827A" transform="translate(152,93)"/>
<path d="M0 0 C1.9375 0.3125 1.9375 0.3125 4 1 C4.33 1.99 4.66 2.98 5 4 C3.35 4 1.7 4 0 4 C0 2.68 0 1.36 0 0 Z " fill="#838783" transform="translate(160,252)"/>
<path d="M0 0 C0.99 0.33 1.98 0.66 3 1 C3 1.66 3 2.32 3 3 C3.66 3 4.32 3 5 3 C5 3.66 5 4.32 5 5 C3.35 5 1.7 5 0 5 C-0.5625 3.0625 -0.5625 3.0625 -1 1 C-0.67 0.67 -0.34 0.34 0 0 Z " fill="#A1A4A0" transform="translate(129,235)"/>
<path d="M0 0 C0.66 1.32 1.32 2.64 2 4 C-0.31 4.33 -2.62 4.66 -5 5 C-5 4.34 -5 3.68 -5 3 C-2.5 1.375 -2.5 1.375 0 0 Z " fill="#50B052" transform="translate(115,202)"/>
</svg>
